%TF.GenerationSoftware,KiCad,Pcbnew,8.0.0*%
%TF.CreationDate,2024-03-02T15:21:29-05:00*%
%TF.ProjectId,Plano,506c616e-6f2e-46b6-9963-61645f706362,rev?*%
%TF.SameCoordinates,Original*%
%TF.FileFunction,Copper,L2,Bot*%
%TF.FilePolarity,Positive*%
%FSLAX46Y46*%
G04 Gerber Fmt 4.6, Leading zero omitted, Abs format (unit mm)*
G04 Created by KiCad (PCBNEW 8.0.0) date 2024-03-02 15:21:29*
%MOMM*%
%LPD*%
G01*
G04 APERTURE LIST*
%ADD10C,0.300000*%
%TA.AperFunction,NonConductor*%
%ADD11C,0.300000*%
%TD*%
%TA.AperFunction,NonConductor*%
%ADD12C,0.200000*%
%TD*%
%TA.AperFunction,ComponentPad*%
%ADD13R,2.000000X2.000000*%
%TD*%
%TA.AperFunction,ComponentPad*%
%ADD14R,1.050000X1.500000*%
%TD*%
%TA.AperFunction,ComponentPad*%
%ADD15R,1.600000X1.600000*%
%TD*%
%TA.AperFunction,ViaPad*%
%ADD16C,2.000000*%
%TD*%
%TA.AperFunction,Conductor*%
%ADD17C,1.000000*%
%TD*%
G04 APERTURE END LIST*
D10*
D11*
X82460328Y-107557284D02*
X83460328Y-107557284D01*
X81888900Y-107914426D02*
X82960328Y-108271569D01*
X82960328Y-108271569D02*
X82960328Y-107342998D01*
X83460328Y-106700141D02*
X83460328Y-106414427D01*
X83460328Y-106414427D02*
X83388900Y-106271570D01*
X83388900Y-106271570D02*
X83317471Y-106200141D01*
X83317471Y-106200141D02*
X83103185Y-106057284D01*
X83103185Y-106057284D02*
X82817471Y-105985855D01*
X82817471Y-105985855D02*
X82246042Y-105985855D01*
X82246042Y-105985855D02*
X82103185Y-106057284D01*
X82103185Y-106057284D02*
X82031757Y-106128713D01*
X82031757Y-106128713D02*
X81960328Y-106271570D01*
X81960328Y-106271570D02*
X81960328Y-106557284D01*
X81960328Y-106557284D02*
X82031757Y-106700141D01*
X82031757Y-106700141D02*
X82103185Y-106771570D01*
X82103185Y-106771570D02*
X82246042Y-106842998D01*
X82246042Y-106842998D02*
X82603185Y-106842998D01*
X82603185Y-106842998D02*
X82746042Y-106771570D01*
X82746042Y-106771570D02*
X82817471Y-106700141D01*
X82817471Y-106700141D02*
X82888900Y-106557284D01*
X82888900Y-106557284D02*
X82888900Y-106271570D01*
X82888900Y-106271570D02*
X82817471Y-106128713D01*
X82817471Y-106128713D02*
X82746042Y-106057284D01*
X82746042Y-106057284D02*
X82603185Y-105985855D01*
X83388900Y-105271570D02*
X83460328Y-105271570D01*
X83460328Y-105271570D02*
X83603185Y-105342999D01*
X83603185Y-105342999D02*
X83674614Y-105414427D01*
X82103185Y-104700141D02*
X82031757Y-104628713D01*
X82031757Y-104628713D02*
X81960328Y-104485856D01*
X81960328Y-104485856D02*
X81960328Y-104128713D01*
X81960328Y-104128713D02*
X82031757Y-103985856D01*
X82031757Y-103985856D02*
X82103185Y-103914427D01*
X82103185Y-103914427D02*
X82246042Y-103842998D01*
X82246042Y-103842998D02*
X82388900Y-103842998D01*
X82388900Y-103842998D02*
X82603185Y-103914427D01*
X82603185Y-103914427D02*
X83460328Y-104771570D01*
X83460328Y-104771570D02*
X83460328Y-103842998D01*
X81960328Y-103342999D02*
X81960328Y-102342999D01*
X81960328Y-102342999D02*
X83460328Y-102985856D01*
X81960328Y-101485856D02*
X81960328Y-101342999D01*
X81960328Y-101342999D02*
X82031757Y-101200142D01*
X82031757Y-101200142D02*
X82103185Y-101128714D01*
X82103185Y-101128714D02*
X82246042Y-101057285D01*
X82246042Y-101057285D02*
X82531757Y-100985856D01*
X82531757Y-100985856D02*
X82888900Y-100985856D01*
X82888900Y-100985856D02*
X83174614Y-101057285D01*
X83174614Y-101057285D02*
X83317471Y-101128714D01*
X83317471Y-101128714D02*
X83388900Y-101200142D01*
X83388900Y-101200142D02*
X83460328Y-101342999D01*
X83460328Y-101342999D02*
X83460328Y-101485856D01*
X83460328Y-101485856D02*
X83388900Y-101628714D01*
X83388900Y-101628714D02*
X83317471Y-101700142D01*
X83317471Y-101700142D02*
X83174614Y-101771571D01*
X83174614Y-101771571D02*
X82888900Y-101842999D01*
X82888900Y-101842999D02*
X82531757Y-101842999D01*
X82531757Y-101842999D02*
X82246042Y-101771571D01*
X82246042Y-101771571D02*
X82103185Y-101700142D01*
X82103185Y-101700142D02*
X82031757Y-101628714D01*
X82031757Y-101628714D02*
X81960328Y-101485856D01*
X81960328Y-100057285D02*
X81960328Y-99914428D01*
X81960328Y-99914428D02*
X82031757Y-99771571D01*
X82031757Y-99771571D02*
X82103185Y-99700143D01*
X82103185Y-99700143D02*
X82246042Y-99628714D01*
X82246042Y-99628714D02*
X82531757Y-99557285D01*
X82531757Y-99557285D02*
X82888900Y-99557285D01*
X82888900Y-99557285D02*
X83174614Y-99628714D01*
X83174614Y-99628714D02*
X83317471Y-99700143D01*
X83317471Y-99700143D02*
X83388900Y-99771571D01*
X83388900Y-99771571D02*
X83460328Y-99914428D01*
X83460328Y-99914428D02*
X83460328Y-100057285D01*
X83460328Y-100057285D02*
X83388900Y-100200143D01*
X83388900Y-100200143D02*
X83317471Y-100271571D01*
X83317471Y-100271571D02*
X83174614Y-100343000D01*
X83174614Y-100343000D02*
X82888900Y-100414428D01*
X82888900Y-100414428D02*
X82531757Y-100414428D01*
X82531757Y-100414428D02*
X82246042Y-100343000D01*
X82246042Y-100343000D02*
X82103185Y-100271571D01*
X82103185Y-100271571D02*
X82031757Y-100200143D01*
X82031757Y-100200143D02*
X81960328Y-100057285D01*
X83460328Y-97771572D02*
X82460328Y-97771572D01*
X82603185Y-97771572D02*
X82531757Y-97700143D01*
X82531757Y-97700143D02*
X82460328Y-97557286D01*
X82460328Y-97557286D02*
X82460328Y-97343000D01*
X82460328Y-97343000D02*
X82531757Y-97200143D01*
X82531757Y-97200143D02*
X82674614Y-97128715D01*
X82674614Y-97128715D02*
X83460328Y-97128715D01*
X82674614Y-97128715D02*
X82531757Y-97057286D01*
X82531757Y-97057286D02*
X82460328Y-96914429D01*
X82460328Y-96914429D02*
X82460328Y-96700143D01*
X82460328Y-96700143D02*
X82531757Y-96557286D01*
X82531757Y-96557286D02*
X82674614Y-96485857D01*
X82674614Y-96485857D02*
X83460328Y-96485857D01*
X83460328Y-95771572D02*
X82460328Y-95771572D01*
X82603185Y-95771572D02*
X82531757Y-95700143D01*
X82531757Y-95700143D02*
X82460328Y-95557286D01*
X82460328Y-95557286D02*
X82460328Y-95343000D01*
X82460328Y-95343000D02*
X82531757Y-95200143D01*
X82531757Y-95200143D02*
X82674614Y-95128715D01*
X82674614Y-95128715D02*
X83460328Y-95128715D01*
X82674614Y-95128715D02*
X82531757Y-95057286D01*
X82531757Y-95057286D02*
X82460328Y-94914429D01*
X82460328Y-94914429D02*
X82460328Y-94700143D01*
X82460328Y-94700143D02*
X82531757Y-94557286D01*
X82531757Y-94557286D02*
X82674614Y-94485857D01*
X82674614Y-94485857D02*
X83460328Y-94485857D01*
D12*
X96292000Y-125978000D02*
X83995580Y-125978000D01*
X96292000Y-76708000D02*
X83995580Y-76708000D01*
X84582000Y-125978000D02*
X84582000Y-76708000D01*
X84582000Y-125978000D02*
X84582000Y-76708000D01*
X84582000Y-125978000D02*
X83995579Y-124851496D01*
X84582000Y-125978000D02*
X85168421Y-124851496D01*
X84582000Y-76708000D02*
X85168421Y-77834504D01*
X84582000Y-76708000D02*
X83995579Y-77834504D01*
D13*
%TO.P,SW1,1,1*%
%TO.N,GND*%
X214500000Y-76020000D03*
%TO.P,SW1,2,2*%
%TO.N,GPIO18*%
X214500000Y-68400000D03*
%TD*%
D14*
%TO.P,Q2,1,E*%
%TO.N,GND_BJT*%
X148000000Y-77740000D03*
%TO.P,Q2,2,B*%
%TO.N,Net-(Q2-B)*%
X146730000Y-77740000D03*
%TO.P,Q2,3,C*%
%TO.N,Net-(J1-Pin_6)*%
X145460000Y-77740000D03*
%TD*%
D13*
%TO.P,J1,1,Pin_1*%
%TO.N,GPIO15*%
X98298000Y-78486000D03*
%TO.P,J1,2,Pin_2*%
%TO.N,unconnected-(J1-Pin_2-Pad2)*%
X100838000Y-78486000D03*
%TO.P,J1,3,Pin_3*%
%TO.N,Net-(J1-Pin_3)*%
X103378000Y-78486000D03*
%TO.P,J1,4,Pin_4*%
%TO.N,GPIO0*%
X105918000Y-78486000D03*
%TO.P,J1,5,Pin_5*%
%TO.N,unconnected-(J1-Pin_5-Pad5)*%
X108458000Y-78486000D03*
%TO.P,J1,6,Pin_6*%
%TO.N,Net-(J1-Pin_6)*%
X110998000Y-78486000D03*
%TO.P,J1,7,Pin_7*%
%TO.N,GPIO17*%
X113538000Y-78486000D03*
%TO.P,J1,8,Pin_8*%
%TO.N,unconnected-(J1-Pin_8-Pad8)*%
X116078000Y-78486000D03*
%TO.P,J1,9,Pin_9*%
%TO.N,Net-(J1-Pin_9)*%
X118618000Y-78486000D03*
%TO.P,J1,10,Pin_10*%
%TO.N,GPIO5*%
X121158000Y-78486000D03*
%TO.P,J1,11,Pin_11*%
%TO.N,unconnected-(J1-Pin_11-Pad11)*%
X123698000Y-78486000D03*
%TO.P,J1,12,Pin_12*%
%TO.N,Net-(J1-Pin_12)*%
X126238000Y-78486000D03*
%TD*%
%TO.P,J3,1,Pin_1*%
%TO.N,GND*%
X170942000Y-89408000D03*
%TO.P,J3,2,Pin_2*%
%TO.N,GPIO23*%
X173482000Y-89408000D03*
%TO.P,J3,3,Pin_3*%
%TO.N,GPIO22*%
X176022000Y-89408000D03*
%TO.P,J3,4,Pin_4*%
%TO.N,TX{slash}GPIO1*%
X178562000Y-89408000D03*
%TO.P,J3,5,Pin_5*%
%TO.N,RX{slash}GPIO3*%
X181102000Y-89408000D03*
%TO.P,J3,6,Pin_6*%
%TO.N,GPIO21*%
X183642000Y-89408000D03*
%TO.P,J3,7,Pin_7*%
%TO.N,GND*%
X186182000Y-89408000D03*
%TO.P,J3,8,Pin_8*%
%TO.N,GPIO19*%
X188722000Y-89408000D03*
%TO.P,J3,9,Pin_9*%
%TO.N,GPIO18*%
X191262000Y-89408000D03*
%TO.P,J3,10,Pin_10*%
%TO.N,Net-(J3-Pin_10)*%
X193802000Y-89408000D03*
%TO.P,J3,11,Pin_11*%
%TO.N,Net-(J3-Pin_11)*%
X196342000Y-89408000D03*
%TO.P,J3,12,Pin_12*%
%TO.N,GPIO16*%
X198882000Y-89408000D03*
%TO.P,J3,13,Pin_13*%
%TO.N,GPIO4*%
X201422000Y-89408000D03*
%TO.P,J3,14,Pin_14*%
%TO.N,Net-(J3-Pin_14)*%
X203962000Y-89408000D03*
%TO.P,J3,15,Pin_15*%
%TO.N,GPIO2*%
X206502000Y-89408000D03*
%TO.P,J3,16,Pin_16*%
%TO.N,Net-(J3-Pin_16)*%
X209042000Y-89408000D03*
%TO.P,J3,17,Pin_17*%
%TO.N,unconnected-(J3-Pin_17-Pad17)*%
X211582000Y-89408000D03*
%TO.P,J3,18,Pin_18*%
%TO.N,unconnected-(J3-Pin_18-Pad18)*%
X214122000Y-89408000D03*
%TO.P,J3,19,Pin_19*%
%TO.N,unconnected-(J3-Pin_19-Pad19)*%
X216662000Y-89408000D03*
%TD*%
D15*
%TO.P,R14,1*%
%TO.N,GPIO25*%
X191200000Y-121800000D03*
%TO.P,R14,2*%
%TO.N,Net-(Q5-B)*%
X188660000Y-121800000D03*
%TD*%
%TO.P,R12,1*%
%TO.N,Net-(J4-Pin_8)*%
X188722000Y-108966000D03*
%TO.P,R12,2*%
%TO.N,GPIO33*%
X183642000Y-108966000D03*
%TD*%
D14*
%TO.P,Q6,1,E*%
%TO.N,GND_BJT*%
X148236000Y-102368000D03*
%TO.P,Q6,2,B*%
%TO.N,Net-(Q6-B)*%
X146966000Y-102368000D03*
%TO.P,Q6,3,C*%
%TO.N,Net-(J2-Pin_9)*%
X145696000Y-102368000D03*
%TD*%
%TO.P,Q8,1,E*%
%TO.N,GND_BJT*%
X148600000Y-132400000D03*
%TO.P,Q8,2,B*%
%TO.N,Net-(Q8-B)*%
X147330000Y-132400000D03*
%TO.P,Q8,3,C*%
%TO.N,Net-(J2-Pin_3)*%
X146060000Y-132400000D03*
%TD*%
D15*
%TO.P,R3,1*%
%TO.N,GPIO17*%
X191262000Y-92964000D03*
%TO.P,R3,2*%
%TO.N,Net-(J3-Pin_11)*%
X196342000Y-92964000D03*
%TD*%
D14*
%TO.P,Q5,1,E*%
%TO.N,GND_BJT*%
X148206000Y-116908000D03*
%TO.P,Q5,2,B*%
%TO.N,Net-(Q5-B)*%
X146936000Y-116908000D03*
%TO.P,Q5,3,C*%
%TO.N,Net-(J2-Pin_12)*%
X145666000Y-116908000D03*
%TD*%
D13*
%TO.P,R1,1*%
%TO.N,GPIO15*%
X206502000Y-65532000D03*
%TO.P,R1,2*%
%TO.N,Net-(J3-Pin_16)*%
X209042000Y-65532000D03*
%TD*%
D14*
%TO.P,Q1,1,E*%
%TO.N,GND_BJT*%
X148100000Y-70100000D03*
%TO.P,Q1,2,B*%
%TO.N,Net-(Q1-B)*%
X146830000Y-70100000D03*
%TO.P,Q1,3,C*%
%TO.N,Net-(J1-Pin_3)*%
X145560000Y-70100000D03*
%TD*%
%TO.P,Q7,1,E*%
%TO.N,GND_BJT*%
X148306000Y-123708000D03*
%TO.P,Q7,2,B*%
%TO.N,Net-(Q7-B)*%
X147036000Y-123708000D03*
%TO.P,Q7,3,C*%
%TO.N,Net-(J2-Pin_6)*%
X145766000Y-123708000D03*
%TD*%
D15*
%TO.P,R6,1*%
%TO.N,GPIO4*%
X201422000Y-76962000D03*
%TO.P,R6,2*%
%TO.N,Net-(Q2-B)*%
X198882000Y-76962000D03*
%TD*%
D14*
%TO.P,Q4,1,E*%
%TO.N,GND_BJT*%
X148000000Y-83900000D03*
%TO.P,Q4,2,B*%
%TO.N,Net-(Q4-B)*%
X146730000Y-83900000D03*
%TO.P,Q4,3,C*%
%TO.N,Net-(J1-Pin_12)*%
X145460000Y-83900000D03*
%TD*%
D15*
%TO.P,R13,1*%
%TO.N,GPI36*%
X176100000Y-102362000D03*
%TO.P,R13,2*%
%TO.N,Net-(Q6-B)*%
X171020000Y-102362000D03*
%TD*%
%TO.P,R15,1*%
%TO.N,GPIO27*%
X196342000Y-126238000D03*
%TO.P,R15,2*%
%TO.N,Net-(Q7-B)*%
X193802000Y-126238000D03*
%TD*%
D13*
%TO.P,SW2,1,1*%
%TO.N,GPIO32*%
X214400000Y-132425000D03*
%TO.P,SW2,2,2*%
%TO.N,GND*%
X214400000Y-124805000D03*
%TD*%
D15*
%TO.P,R17,1*%
%TO.N,GPI39*%
X178700000Y-118800000D03*
%TO.P,R17,2*%
%TO.N,Net-(Q9-B)*%
X176160000Y-118800000D03*
%TD*%
%TO.P,SW3,1,A*%
%TO.N,GND_BJT*%
X155000000Y-91800000D03*
%TO.P,SW3,2,B*%
%TO.N,GND*%
X162620000Y-91800000D03*
%TD*%
%TO.P,R4,1*%
%TO.N,GPIO5*%
X191160000Y-85400000D03*
%TO.P,R4,2*%
%TO.N,Net-(J3-Pin_10)*%
X193700000Y-85400000D03*
%TD*%
%TO.P,R8,1*%
%TO.N,unconnected-(R8-Pad1)*%
X198900000Y-80800000D03*
%TO.P,R8,2*%
%TO.N,Net-(Q4-B)*%
X196360000Y-80800000D03*
%TD*%
%TO.P,R16,1*%
%TO.N,GPIO12*%
X201422000Y-133858000D03*
%TO.P,R16,2*%
%TO.N,Net-(Q8-B)*%
X198882000Y-133858000D03*
%TD*%
%TO.P,R7,1*%
%TO.N,GPIO16*%
X198882000Y-97790000D03*
%TO.P,R7,2*%
%TO.N,Net-(Q3-B)*%
X193802000Y-97790000D03*
%TD*%
%TO.P,R2,1*%
%TO.N,GPIO0*%
X201422000Y-73152000D03*
%TO.P,R2,2*%
%TO.N,Net-(J3-Pin_14)*%
X203962000Y-73152000D03*
%TD*%
D13*
%TO.P,J4,1,Pin_1*%
%TO.N,3.3V*%
X170942000Y-113792000D03*
%TO.P,J4,2,Pin_2*%
%TO.N,unconnected-(J4-Pin_2-Pad2)*%
X173482000Y-113792000D03*
%TO.P,J4,3,Pin_3*%
%TO.N,GPI36*%
X176022000Y-113792000D03*
%TO.P,J4,4,Pin_4*%
%TO.N,GPI39*%
X178562000Y-113792000D03*
%TO.P,J4,5,Pin_5*%
%TO.N,GPI34*%
X181102000Y-113792000D03*
%TO.P,J4,6,Pin_6*%
%TO.N,GPI35*%
X183642000Y-113792000D03*
%TO.P,J4,7,Pin_7*%
%TO.N,GPIO32*%
X186182000Y-113792000D03*
%TO.P,J4,8,Pin_8*%
%TO.N,Net-(J4-Pin_8)*%
X188722000Y-113792000D03*
%TO.P,J4,9,Pin_9*%
%TO.N,GPIO25*%
X191262000Y-113792000D03*
%TO.P,J4,10,Pin_10*%
%TO.N,Net-(J4-Pin_10)*%
X193802000Y-113792000D03*
%TO.P,J4,11,Pin_11*%
%TO.N,GPIO27*%
X196342000Y-113792000D03*
%TO.P,J4,12,Pin_12*%
%TO.N,Net-(J4-Pin_12)*%
X198882000Y-113792000D03*
%TO.P,J4,13,Pin_13*%
%TO.N,GPIO12*%
X201422000Y-113792000D03*
%TO.P,J4,14,Pin_14*%
%TO.N,GND*%
X203962000Y-113792000D03*
%TO.P,J4,15,Pin_15*%
%TO.N,Net-(J4-Pin_15)*%
X206502000Y-113792000D03*
%TO.P,J4,16,Pin_16*%
%TO.N,unconnected-(J4-Pin_16-Pad16)*%
X209042000Y-113792000D03*
%TO.P,J4,17,Pin_17*%
%TO.N,unconnected-(J4-Pin_17-Pad17)*%
X211582000Y-113792000D03*
%TO.P,J4,18,Pin_18*%
%TO.N,unconnected-(J4-Pin_18-Pad18)*%
X214122000Y-113792000D03*
%TO.P,J4,19,Pin_19*%
%TO.N,5V*%
X216662000Y-113792000D03*
%TD*%
D14*
%TO.P,Q3,1,E*%
%TO.N,GND_BJT*%
X148000000Y-92400000D03*
%TO.P,Q3,2,B*%
%TO.N,Net-(Q3-B)*%
X146730000Y-92400000D03*
%TO.P,Q3,3,C*%
%TO.N,Net-(J1-Pin_9)*%
X145460000Y-92400000D03*
%TD*%
%TO.P,Q9,1,E*%
%TO.N,GND_BJT*%
X148206000Y-109968000D03*
%TO.P,Q9,2,B*%
%TO.N,Net-(Q9-B)*%
X146936000Y-109968000D03*
%TO.P,Q9,3,C*%
%TO.N,Net-(J2-Pin_11)*%
X145666000Y-109968000D03*
%TD*%
D15*
%TO.P,R9,1*%
%TO.N,Net-(J4-Pin_15)*%
X206502000Y-137668000D03*
%TO.P,R9,2*%
%TO.N,GPIO13*%
X203962000Y-137668000D03*
%TD*%
D13*
%TO.P,J2,1,Pin_1*%
%TO.N,GPIO13*%
X98298000Y-124206000D03*
%TO.P,J2,2,Pin_2*%
%TO.N,unconnected-(J2-Pin_2-Pad2)*%
X100838000Y-124206000D03*
%TO.P,J2,3,Pin_3*%
%TO.N,Net-(J2-Pin_3)*%
X103378000Y-124206000D03*
%TO.P,J2,4,Pin_4*%
%TO.N,GPIO14*%
X105918000Y-124206000D03*
%TO.P,J2,5,Pin_5*%
%TO.N,unconnected-(J2-Pin_5-Pad5)*%
X108458000Y-124206000D03*
%TO.P,J2,6,Pin_6*%
%TO.N,Net-(J2-Pin_6)*%
X110998000Y-124206000D03*
%TO.P,J2,7,Pin_7*%
%TO.N,GPIO26*%
X113538000Y-124206000D03*
%TO.P,J2,8,Pin_8*%
%TO.N,unconnected-(J2-Pin_8-Pad8)*%
X116078000Y-124206000D03*
%TO.P,J2,9,Pin_9*%
%TO.N,Net-(J2-Pin_9)*%
X118618000Y-124206000D03*
%TO.P,J2,10,Pin_10*%
%TO.N,GPIO33*%
X121158000Y-124206000D03*
%TO.P,J2,11,Pin_11*%
%TO.N,Net-(J2-Pin_11)*%
X123698000Y-124206000D03*
%TO.P,J2,12,Pin_12*%
%TO.N,Net-(J2-Pin_12)*%
X126238000Y-124206000D03*
%TD*%
%TO.P,R5,1*%
%TO.N,GPIO2*%
X206502000Y-69342000D03*
%TO.P,R5,2*%
%TO.N,Net-(Q1-B)*%
X203962000Y-69342000D03*
%TD*%
D15*
%TO.P,R10,1*%
%TO.N,Net-(J4-Pin_12)*%
X198882000Y-130048000D03*
%TO.P,R10,2*%
%TO.N,GPIO14*%
X196342000Y-130048000D03*
%TD*%
%TO.P,R11,1*%
%TO.N,Net-(J4-Pin_10)*%
X193802000Y-104648000D03*
%TO.P,R11,2*%
%TO.N,GPIO26*%
X188722000Y-104648000D03*
%TD*%
D16*
%TO.N,GPIO18*%
X211201000Y-68453000D03*
%TO.N,GPIO17*%
X188087000Y-92964000D03*
X113411000Y-81407000D03*
%TO.N,GPI36*%
X178689000Y-102489000D03*
X176022000Y-110998000D03*
%TO.N,GPIO32*%
X186055000Y-117602000D03*
X209931000Y-132334000D03*
%TO.N,GND_BJT*%
X151231600Y-111810800D03*
X151079200Y-118668800D03*
X154330400Y-84277200D03*
X154533600Y-114401600D03*
X151942800Y-103835200D03*
X154838400Y-70002400D03*
X155397200Y-123952000D03*
X150672800Y-93776800D03*
X150622000Y-84378800D03*
X152806400Y-132384800D03*
X153268576Y-120100860D03*
X152095200Y-89865200D03*
X154838400Y-105511600D03*
X150977600Y-123952000D03*
X150926800Y-78079600D03*
X154736800Y-78079600D03*
%TD*%
D17*
%TO.N,GPIO15*%
X206502000Y-65532000D02*
X99368000Y-65532000D01*
X98298000Y-66602000D02*
X98298000Y-78486000D01*
X99368000Y-65532000D02*
X98298000Y-66602000D01*
%TO.N,Net-(J1-Pin_3)*%
X103378000Y-72122000D02*
X103378000Y-78486000D01*
X145560000Y-70100000D02*
X105400000Y-70100000D01*
X105400000Y-70100000D02*
X103378000Y-72122000D01*
%TO.N,GPIO0*%
X105918000Y-76282000D02*
X105918000Y-78486000D01*
X108348000Y-73152000D02*
X106000000Y-75500000D01*
X106000000Y-75500000D02*
X106000000Y-76200000D01*
X201422000Y-73152000D02*
X108348000Y-73152000D01*
X106000000Y-76200000D02*
X105918000Y-76282000D01*
%TO.N,Net-(J1-Pin_6)*%
X139300000Y-75400000D02*
X114084000Y-75400000D01*
X145460000Y-77740000D02*
X141640000Y-77740000D01*
X141640000Y-77740000D02*
X139300000Y-75400000D01*
X114084000Y-75400000D02*
X110998000Y-78486000D01*
%TO.N,GPIO16*%
X198882000Y-89408000D02*
X198882000Y-97790000D01*
X198900000Y-80800000D02*
X198900000Y-89390000D01*
%TO.N,Net-(J1-Pin_9)*%
X118618000Y-79918000D02*
X118618000Y-78486000D01*
X131100000Y-92400000D02*
X118618000Y-79918000D01*
X145460000Y-92400000D02*
X131100000Y-92400000D01*
%TO.N,GPIO5*%
X155000000Y-87400000D02*
X130072000Y-87400000D01*
X191160000Y-85400000D02*
X157000000Y-85400000D01*
X130072000Y-87400000D02*
X121158000Y-78486000D01*
X157000000Y-85400000D02*
X155000000Y-87400000D01*
%TO.N,Net-(J1-Pin_12)*%
X130252000Y-82500000D02*
X126238000Y-78486000D01*
X144060000Y-82500000D02*
X130252000Y-82500000D01*
X145460000Y-83900000D02*
X144060000Y-82500000D01*
%TO.N,GPIO13*%
X100568000Y-137668000D02*
X98300000Y-135400000D01*
X98298000Y-127398000D02*
X98298000Y-124206000D01*
X98300000Y-127400000D02*
X98298000Y-127398000D01*
X98300000Y-135400000D02*
X98300000Y-127400000D01*
X203962000Y-137668000D02*
X100568000Y-137668000D01*
%TO.N,Net-(J2-Pin_3)*%
X103378000Y-129278000D02*
X103378000Y-124206000D01*
X103400000Y-129300000D02*
X103378000Y-129278000D01*
X103400000Y-129900000D02*
X103400000Y-129300000D01*
X105900000Y-132400000D02*
X103400000Y-129900000D01*
X146060000Y-132400000D02*
X105900000Y-132400000D01*
%TO.N,GPIO14*%
X195394000Y-129100000D02*
X196342000Y-130048000D01*
X105918000Y-124206000D02*
X110812000Y-129100000D01*
X110812000Y-129100000D02*
X195394000Y-129100000D01*
%TO.N,Net-(J2-Pin_6)*%
X142374000Y-127100000D02*
X145766000Y-123708000D01*
X113892000Y-127100000D02*
X142374000Y-127100000D01*
X110998000Y-124206000D02*
X113892000Y-127100000D01*
%TO.N,GPIO26*%
X139192000Y-98552000D02*
X113538000Y-124206000D01*
X188722000Y-104648000D02*
X182626000Y-98552000D01*
X182626000Y-98552000D02*
X139192000Y-98552000D01*
%TO.N,Net-(J2-Pin_9)*%
X140456000Y-102368000D02*
X118618000Y-124206000D01*
X145696000Y-102368000D02*
X140456000Y-102368000D01*
%TO.N,GPIO33*%
X137098000Y-108266000D02*
X121158000Y-124206000D01*
X182942000Y-108266000D02*
X137098000Y-108266000D01*
X183642000Y-108966000D02*
X182942000Y-108266000D01*
%TO.N,Net-(J2-Pin_11)*%
X123698000Y-124206000D02*
X137936000Y-109968000D01*
X137936000Y-109968000D02*
X145666000Y-109968000D01*
%TO.N,Net-(J2-Pin_12)*%
X145666000Y-116908000D02*
X133536000Y-116908000D01*
X133536000Y-116908000D02*
X126238000Y-124206000D01*
%TO.N,GND*%
X162620000Y-91800000D02*
X168550000Y-91800000D01*
X168550000Y-91800000D02*
X170942000Y-89408000D01*
%TO.N,GPIO18*%
X214500000Y-68400000D02*
X211254000Y-68400000D01*
X211254000Y-68400000D02*
X211201000Y-68453000D01*
%TO.N,Net-(J3-Pin_10)*%
X193700000Y-85400000D02*
X193700000Y-89306000D01*
%TO.N,GPIO17*%
X113538000Y-81280000D02*
X113411000Y-81407000D01*
X191262000Y-92964000D02*
X188087000Y-92964000D01*
X113538000Y-78486000D02*
X113538000Y-81280000D01*
%TO.N,GPIO4*%
X201422000Y-76962000D02*
X201422000Y-89408000D01*
%TO.N,Net-(J3-Pin_14)*%
X203962000Y-73152000D02*
X203962000Y-89408000D01*
%TO.N,GPIO2*%
X206502000Y-69342000D02*
X206502000Y-89408000D01*
%TO.N,Net-(J3-Pin_16)*%
X209042000Y-65532000D02*
X209042000Y-89408000D01*
%TO.N,GPI36*%
X178562000Y-102362000D02*
X178689000Y-102489000D01*
X176100000Y-113714000D02*
X176022000Y-113792000D01*
X176022000Y-110998000D02*
X176022000Y-113792000D01*
X176100000Y-102362000D02*
X178562000Y-102362000D01*
%TO.N,GPI39*%
X178562000Y-113792000D02*
X178562000Y-118662000D01*
%TO.N,GPIO32*%
X186055000Y-113919000D02*
X186182000Y-113792000D01*
X186055000Y-117602000D02*
X186055000Y-113919000D01*
X210022000Y-132425000D02*
X209931000Y-132334000D01*
X214400000Y-132425000D02*
X210022000Y-132425000D01*
%TO.N,Net-(J4-Pin_8)*%
X188722000Y-108966000D02*
X188722000Y-113792000D01*
%TO.N,GPIO25*%
X191262000Y-113792000D02*
X191262000Y-121738000D01*
%TO.N,Net-(J4-Pin_10)*%
X193802000Y-104648000D02*
X193802000Y-113792000D01*
%TO.N,GPIO27*%
X196342000Y-126238000D02*
X196342000Y-113792000D01*
%TO.N,Net-(J4-Pin_12)*%
X198882000Y-130048000D02*
X198882000Y-113792000D01*
%TO.N,GPIO12*%
X201422000Y-113792000D02*
X201422000Y-133858000D01*
%TO.N,Net-(J4-Pin_15)*%
X206502000Y-137668000D02*
X206502000Y-113792000D01*
%TO.N,Net-(Q1-B)*%
X146830000Y-68695000D02*
X148215000Y-67310000D01*
X201930000Y-67310000D02*
X203962000Y-69342000D01*
X148215000Y-67310000D02*
X201930000Y-67310000D01*
X146830000Y-70100000D02*
X146830000Y-68695000D01*
%TO.N,Net-(Q2-B)*%
X147916000Y-75184000D02*
X146730000Y-76370000D01*
X198882000Y-76962000D02*
X197104000Y-75184000D01*
X197104000Y-75184000D02*
X147916000Y-75184000D01*
X146730000Y-76370000D02*
X146730000Y-77740000D01*
%TO.N,Net-(Q3-B)*%
X193802000Y-97790000D02*
X192278000Y-96266000D01*
X149191000Y-96266000D02*
X146730000Y-93805000D01*
X146730000Y-93805000D02*
X146730000Y-92400000D01*
X192278000Y-96266000D02*
X149191000Y-96266000D01*
%TO.N,Net-(Q4-B)*%
X148425000Y-80800000D02*
X146730000Y-82495000D01*
X196360000Y-80800000D02*
X148425000Y-80800000D01*
X146730000Y-82495000D02*
X146730000Y-83900000D01*
%TO.N,Net-(Q5-B)*%
X146936000Y-118313000D02*
X146936000Y-116908000D01*
X150423000Y-121800000D02*
X146936000Y-118313000D01*
X188660000Y-121800000D02*
X150423000Y-121800000D01*
%TO.N,Net-(Q6-B)*%
X146966000Y-100963000D02*
X146966000Y-102368000D01*
X169576000Y-100918000D02*
X147011000Y-100918000D01*
X147011000Y-100918000D02*
X146966000Y-100963000D01*
X171020000Y-102362000D02*
X169576000Y-100918000D01*
%TO.N,Net-(Q7-B)*%
X147036000Y-123708000D02*
X147036000Y-125113000D01*
X148161000Y-126238000D02*
X193802000Y-126238000D01*
X147036000Y-125113000D02*
X148161000Y-126238000D01*
%TO.N,Net-(Q8-B)*%
X147330000Y-133805000D02*
X148653000Y-135128000D01*
X147330000Y-132400000D02*
X147330000Y-133805000D01*
X148653000Y-135128000D02*
X197612000Y-135128000D01*
X197612000Y-135128000D02*
X198882000Y-133858000D01*
%TO.N,Net-(Q9-B)*%
X176160000Y-118800000D02*
X154363000Y-118800000D01*
X146936000Y-111373000D02*
X146936000Y-109968000D01*
X154363000Y-118800000D02*
X146936000Y-111373000D01*
%TO.N,Net-(J3-Pin_11)*%
X196342000Y-89408000D02*
X196342000Y-92964000D01*
%TO.N,GND_BJT*%
X148336000Y-110098000D02*
X148206000Y-109968000D01*
X148236000Y-109938000D02*
X148206000Y-109968000D01*
X155000000Y-91800000D02*
X154792000Y-91800000D01*
X148206000Y-116908000D02*
X148306000Y-117008000D01*
X150977600Y-123952000D02*
X155397200Y-123952000D01*
X152095200Y-89865200D02*
X152095200Y-92354400D01*
X148700000Y-132300000D02*
X148600000Y-132400000D01*
X151079200Y-118668800D02*
X151836516Y-118668800D01*
X152095200Y-92354400D02*
X150672800Y-93776800D01*
X150926800Y-78079600D02*
X154736800Y-78079600D01*
X150622000Y-84378800D02*
X154228800Y-84378800D01*
X148100000Y-77640000D02*
X148000000Y-77740000D01*
X151231600Y-111810800D02*
X151942800Y-111810800D01*
X148306000Y-102438000D02*
X148236000Y-102368000D01*
X151942800Y-111810800D02*
X154533600Y-114401600D01*
X151836516Y-118668800D02*
X153268576Y-120100860D01*
X148306000Y-123708000D02*
X148600000Y-124002000D01*
X148080000Y-83820000D02*
X148000000Y-83900000D01*
X148000000Y-84800000D02*
X148000000Y-83900000D01*
X154584400Y-69748400D02*
X154838400Y-70002400D01*
X148000000Y-92400000D02*
X148236000Y-92636000D01*
X151942800Y-103835200D02*
X153162000Y-103835200D01*
X154228800Y-84378800D02*
X154330400Y-84277200D01*
X153162000Y-103835200D02*
X154838400Y-105511600D01*
%TD*%
%TA.AperFunction,Conductor*%
%TO.N,GND_BJT*%
G36*
X156831455Y-130120185D02*
G01*
X156877210Y-130172989D01*
X156888416Y-130224200D01*
X156897566Y-134003200D01*
X156878043Y-134070287D01*
X156825350Y-134116169D01*
X156773566Y-134127500D01*
X149118783Y-134127500D01*
X149051744Y-134107815D01*
X149031102Y-134091181D01*
X148801602Y-133861681D01*
X148768117Y-133800358D01*
X148773101Y-133730666D01*
X148814973Y-133674733D01*
X148880437Y-133650316D01*
X148889283Y-133650000D01*
X149172828Y-133650000D01*
X149172844Y-133649999D01*
X149232372Y-133643598D01*
X149232379Y-133643596D01*
X149367086Y-133593354D01*
X149367093Y-133593350D01*
X149482187Y-133507190D01*
X149482190Y-133507187D01*
X149568350Y-133392093D01*
X149568354Y-133392086D01*
X149618596Y-133257379D01*
X149618598Y-133257372D01*
X149624999Y-133197844D01*
X149625000Y-133197827D01*
X149625000Y-132900000D01*
X148479500Y-132900000D01*
X148412461Y-132880315D01*
X148366706Y-132827511D01*
X148355500Y-132776000D01*
X148355499Y-132685829D01*
X148369745Y-132700075D01*
X148455255Y-132749444D01*
X148550630Y-132775000D01*
X148649370Y-132775000D01*
X148744745Y-132749444D01*
X148830255Y-132700075D01*
X148900075Y-132630255D01*
X148949444Y-132544745D01*
X148975000Y-132449370D01*
X148975000Y-132350630D01*
X148949444Y-132255255D01*
X148900075Y-132169745D01*
X148830255Y-132099925D01*
X148744745Y-132050556D01*
X148649370Y-132025000D01*
X148550630Y-132025000D01*
X148455255Y-132050556D01*
X148369745Y-132099925D01*
X148355499Y-132114170D01*
X148355499Y-131602129D01*
X148355498Y-131602123D01*
X148349091Y-131542516D01*
X148298797Y-131407671D01*
X148298793Y-131407664D01*
X148212547Y-131292455D01*
X148149688Y-131245398D01*
X148107818Y-131189464D01*
X148100851Y-131150851D01*
X148100000Y-131150000D01*
X149100000Y-131150000D01*
X149100000Y-131900000D01*
X149625000Y-131900000D01*
X149625000Y-131602172D01*
X149624999Y-131602155D01*
X149618598Y-131542627D01*
X149618596Y-131542620D01*
X149568354Y-131407913D01*
X149568350Y-131407906D01*
X149482190Y-131292812D01*
X149482187Y-131292809D01*
X149367093Y-131206649D01*
X149367086Y-131206645D01*
X149232379Y-131156403D01*
X149232372Y-131156401D01*
X149172844Y-131150000D01*
X149100000Y-131150000D01*
X148100000Y-131150000D01*
X148027169Y-131150000D01*
X147980597Y-131155007D01*
X147954094Y-131155007D01*
X147902873Y-131149500D01*
X147902864Y-131149500D01*
X146757129Y-131149500D01*
X146757118Y-131149501D01*
X146708248Y-131154754D01*
X146681744Y-131154754D01*
X146663303Y-131152771D01*
X146632873Y-131149500D01*
X146632867Y-131149500D01*
X145487129Y-131149500D01*
X145487123Y-131149501D01*
X145427516Y-131155908D01*
X145292671Y-131206202D01*
X145292664Y-131206206D01*
X145177457Y-131292451D01*
X145177451Y-131292457D01*
X145134515Y-131349812D01*
X145078581Y-131391682D01*
X145035249Y-131399500D01*
X142250169Y-131399500D01*
X142183130Y-131379815D01*
X142137375Y-131327011D01*
X142126170Y-131275117D01*
X142126382Y-131206649D01*
X142129416Y-130224117D01*
X142149307Y-130157139D01*
X142202252Y-130111547D01*
X142253415Y-130100500D01*
X156764416Y-130100500D01*
X156831455Y-130120185D01*
G37*
%TD.AperFunction*%
%TA.AperFunction,Conductor*%
G36*
X144708288Y-117928185D02*
G01*
X144740515Y-117958188D01*
X144745719Y-117965139D01*
X144783454Y-118015546D01*
X144783457Y-118015548D01*
X144898664Y-118101793D01*
X144898671Y-118101797D01*
X145033517Y-118152091D01*
X145033516Y-118152091D01*
X145040444Y-118152835D01*
X145093127Y-118158500D01*
X145811500Y-118158499D01*
X145878539Y-118178183D01*
X145924294Y-118230987D01*
X145935500Y-118282499D01*
X145935500Y-118411541D01*
X145935500Y-118411543D01*
X145935499Y-118411543D01*
X145973947Y-118604829D01*
X145973950Y-118604839D01*
X146049364Y-118786907D01*
X146049371Y-118786920D01*
X146158859Y-118950780D01*
X146158860Y-118950781D01*
X146158861Y-118950782D01*
X146298218Y-119090139D01*
X146298219Y-119090139D01*
X146305286Y-119097206D01*
X146305285Y-119097206D01*
X146305289Y-119097209D01*
X149785215Y-122577137D01*
X149785219Y-122577140D01*
X149949079Y-122686628D01*
X149949085Y-122686631D01*
X149949086Y-122686632D01*
X150131165Y-122762052D01*
X150292389Y-122794121D01*
X150324457Y-122800499D01*
X150324458Y-122800500D01*
X156746741Y-122800500D01*
X156813780Y-122820185D01*
X156859535Y-122872989D01*
X156870740Y-122924197D01*
X156875957Y-125078471D01*
X156876041Y-125113200D01*
X156856518Y-125180287D01*
X156803825Y-125226169D01*
X156752041Y-125237500D01*
X148626783Y-125237500D01*
X148559744Y-125217815D01*
X148539102Y-125201181D01*
X148507602Y-125169681D01*
X148474117Y-125108358D01*
X148479101Y-125038666D01*
X148520973Y-124982733D01*
X148586437Y-124958316D01*
X148595283Y-124958000D01*
X148878828Y-124958000D01*
X148878844Y-124957999D01*
X148938372Y-124951598D01*
X148938379Y-124951596D01*
X149073086Y-124901354D01*
X149073093Y-124901350D01*
X149188187Y-124815190D01*
X149188190Y-124815187D01*
X149274350Y-124700093D01*
X149274354Y-124700086D01*
X149324596Y-124565379D01*
X149324598Y-124565372D01*
X149330999Y-124505844D01*
X149331000Y-124505827D01*
X149331000Y-124208000D01*
X148185500Y-124208000D01*
X148118461Y-124188315D01*
X148072706Y-124135511D01*
X148061500Y-124084000D01*
X148061499Y-123993829D01*
X148075745Y-124008075D01*
X148161255Y-124057444D01*
X148256630Y-124083000D01*
X148355370Y-124083000D01*
X148450745Y-124057444D01*
X148536255Y-124008075D01*
X148606075Y-123938255D01*
X148655444Y-123852745D01*
X148681000Y-123757370D01*
X148681000Y-123658630D01*
X148655444Y-123563255D01*
X148606075Y-123477745D01*
X148536255Y-123407925D01*
X148450745Y-123358556D01*
X148355370Y-123333000D01*
X148256630Y-123333000D01*
X148161255Y-123358556D01*
X148075745Y-123407925D01*
X148061499Y-123422170D01*
X148061499Y-122910129D01*
X148061498Y-122910123D01*
X148061497Y-122910116D01*
X148055091Y-122850517D01*
X148034056Y-122794120D01*
X148004797Y-122715671D01*
X148004793Y-122715664D01*
X147918547Y-122600455D01*
X147855688Y-122553398D01*
X147813818Y-122497464D01*
X147806851Y-122458851D01*
X147806000Y-122458000D01*
X148806000Y-122458000D01*
X148806000Y-123208000D01*
X149331000Y-123208000D01*
X149331000Y-122910172D01*
X149330999Y-122910155D01*
X149324598Y-122850627D01*
X149324596Y-122850620D01*
X149274354Y-122715913D01*
X149274350Y-122715906D01*
X149188190Y-122600812D01*
X149188187Y-122600809D01*
X149073093Y-122514649D01*
X149073086Y-122514645D01*
X148938379Y-122464403D01*
X148938372Y-122464401D01*
X148878844Y-122458000D01*
X148806000Y-122458000D01*
X147806000Y-122458000D01*
X147733169Y-122458000D01*
X147686597Y-122463007D01*
X147660094Y-122463007D01*
X147608873Y-122457500D01*
X147608864Y-122457500D01*
X146463129Y-122457500D01*
X146463118Y-122457501D01*
X146414248Y-122462754D01*
X146387744Y-122462754D01*
X146369303Y-122460771D01*
X146338873Y-122457500D01*
X146338867Y-122457500D01*
X145193129Y-122457500D01*
X145193123Y-122457501D01*
X145133516Y-122463908D01*
X144998671Y-122514202D01*
X144998664Y-122514206D01*
X144883455Y-122600452D01*
X144883452Y-122600455D01*
X144797206Y-122715664D01*
X144797202Y-122715671D01*
X144746908Y-122850517D01*
X144740501Y-122910116D01*
X144740501Y-122910123D01*
X144740500Y-122910135D01*
X144740500Y-123267216D01*
X144720815Y-123334255D01*
X144704181Y-123354897D01*
X142355327Y-125703751D01*
X142294004Y-125737236D01*
X142224312Y-125732252D01*
X142168379Y-125690380D01*
X142143962Y-125624916D01*
X142143648Y-125615720D01*
X142167068Y-118032114D01*
X142186959Y-117965139D01*
X142239904Y-117919547D01*
X142291067Y-117908500D01*
X144641249Y-117908500D01*
X144708288Y-117928185D01*
G37*
%TD.AperFunction*%
%TA.AperFunction,Conductor*%
G36*
X144708288Y-110988185D02*
G01*
X144740515Y-111018188D01*
X144745719Y-111025139D01*
X144783454Y-111075546D01*
X144783457Y-111075548D01*
X144898664Y-111161793D01*
X144898671Y-111161797D01*
X145033517Y-111212091D01*
X145033516Y-111212091D01*
X145040444Y-111212835D01*
X145093127Y-111218500D01*
X145811500Y-111218499D01*
X145878539Y-111238183D01*
X145924294Y-111290987D01*
X145935500Y-111342499D01*
X145935500Y-111471541D01*
X145935500Y-111471543D01*
X145935499Y-111471543D01*
X145973947Y-111664829D01*
X145973950Y-111664839D01*
X146049364Y-111846907D01*
X146049371Y-111846920D01*
X146158860Y-112010781D01*
X146158863Y-112010785D01*
X146302537Y-112154459D01*
X146302559Y-112154479D01*
X153582735Y-119434655D01*
X153582764Y-119434686D01*
X153725214Y-119577136D01*
X153725218Y-119577139D01*
X153889079Y-119686628D01*
X153889092Y-119686635D01*
X154017833Y-119739961D01*
X154060744Y-119757735D01*
X154071164Y-119762051D01*
X154167812Y-119781275D01*
X154216135Y-119790887D01*
X154264458Y-119800500D01*
X156739477Y-119800500D01*
X156806516Y-119820185D01*
X156852271Y-119872989D01*
X156863477Y-119924200D01*
X156865295Y-120675200D01*
X156845772Y-120742287D01*
X156793079Y-120788169D01*
X156741295Y-120799500D01*
X150888783Y-120799500D01*
X150821744Y-120779815D01*
X150801102Y-120763181D01*
X148407602Y-118369681D01*
X148374117Y-118308358D01*
X148379101Y-118238666D01*
X148420973Y-118182733D01*
X148486437Y-118158316D01*
X148495283Y-118158000D01*
X148778828Y-118158000D01*
X148778844Y-118157999D01*
X148838372Y-118151598D01*
X148838379Y-118151596D01*
X148973086Y-118101354D01*
X148973093Y-118101350D01*
X149088187Y-118015190D01*
X149088190Y-118015187D01*
X149174350Y-117900093D01*
X149174354Y-117900086D01*
X149224596Y-117765379D01*
X149224598Y-117765372D01*
X149230999Y-117705844D01*
X149231000Y-117705827D01*
X149231000Y-117408000D01*
X148085500Y-117408000D01*
X148018461Y-117388315D01*
X147972706Y-117335511D01*
X147961500Y-117284000D01*
X147961499Y-117193829D01*
X147975745Y-117208075D01*
X148061255Y-117257444D01*
X148156630Y-117283000D01*
X148255370Y-117283000D01*
X148350745Y-117257444D01*
X148436255Y-117208075D01*
X148506075Y-117138255D01*
X148555444Y-117052745D01*
X148581000Y-116957370D01*
X148581000Y-116858630D01*
X148555444Y-116763255D01*
X148506075Y-116677745D01*
X148436255Y-116607925D01*
X148350745Y-116558556D01*
X148255370Y-116533000D01*
X148156630Y-116533000D01*
X148061255Y-116558556D01*
X147975745Y-116607925D01*
X147961499Y-116622170D01*
X147961499Y-116110129D01*
X147961498Y-116110123D01*
X147955091Y-116050516D01*
X147904797Y-115915671D01*
X147904793Y-115915664D01*
X147818547Y-115800455D01*
X147755688Y-115753398D01*
X147713818Y-115697464D01*
X147706851Y-115658851D01*
X147706000Y-115658000D01*
X148706000Y-115658000D01*
X148706000Y-116408000D01*
X149231000Y-116408000D01*
X149231000Y-116110172D01*
X149230999Y-116110155D01*
X149224598Y-116050627D01*
X149224596Y-116050620D01*
X149174354Y-115915913D01*
X149174350Y-115915906D01*
X149088190Y-115800812D01*
X149088187Y-115800809D01*
X148973093Y-115714649D01*
X148973086Y-115714645D01*
X148838379Y-115664403D01*
X148838372Y-115664401D01*
X148778844Y-115658000D01*
X148706000Y-115658000D01*
X147706000Y-115658000D01*
X147633169Y-115658000D01*
X147586597Y-115663007D01*
X147560094Y-115663007D01*
X147508873Y-115657500D01*
X147508864Y-115657500D01*
X146363129Y-115657500D01*
X146363118Y-115657501D01*
X146314248Y-115662754D01*
X146287744Y-115662754D01*
X146269303Y-115660771D01*
X146238873Y-115657500D01*
X146238867Y-115657500D01*
X145093129Y-115657500D01*
X145093123Y-115657501D01*
X145033516Y-115663908D01*
X144898671Y-115714202D01*
X144898664Y-115714206D01*
X144783457Y-115800451D01*
X144783451Y-115800457D01*
X144740515Y-115857812D01*
X144684581Y-115899682D01*
X144641249Y-115907500D01*
X142298013Y-115907500D01*
X142230974Y-115887815D01*
X142185219Y-115835011D01*
X142174014Y-115783117D01*
X142174106Y-115753398D01*
X142188501Y-111092114D01*
X142208392Y-111025139D01*
X142261337Y-110979547D01*
X142312500Y-110968500D01*
X144641249Y-110968500D01*
X144708288Y-110988185D01*
G37*
%TD.AperFunction*%
%TA.AperFunction,Conductor*%
G36*
X156781010Y-109286185D02*
G01*
X156826765Y-109338989D01*
X156837970Y-109390197D01*
X156854242Y-116110123D01*
X156858031Y-117675200D01*
X156838508Y-117742287D01*
X156785815Y-117788169D01*
X156734031Y-117799500D01*
X154828782Y-117799500D01*
X154761743Y-117779815D01*
X154741101Y-117763181D01*
X148407601Y-111429681D01*
X148374116Y-111368358D01*
X148379100Y-111298666D01*
X148420972Y-111242733D01*
X148486436Y-111218316D01*
X148495282Y-111218000D01*
X148778828Y-111218000D01*
X148778844Y-111217999D01*
X148838372Y-111211598D01*
X148838379Y-111211596D01*
X148973086Y-111161354D01*
X148973093Y-111161350D01*
X149088187Y-111075190D01*
X149088190Y-111075187D01*
X149174350Y-110960093D01*
X149174354Y-110960086D01*
X149224596Y-110825379D01*
X149224598Y-110825372D01*
X149230999Y-110765844D01*
X149231000Y-110765827D01*
X149231000Y-110468000D01*
X148085500Y-110468000D01*
X148018461Y-110448315D01*
X147972706Y-110395511D01*
X147961500Y-110344000D01*
X147961499Y-110253829D01*
X147975745Y-110268075D01*
X148061255Y-110317444D01*
X148156630Y-110343000D01*
X148255370Y-110343000D01*
X148350745Y-110317444D01*
X148436255Y-110268075D01*
X148506075Y-110198255D01*
X148555444Y-110112745D01*
X148581000Y-110017370D01*
X148581000Y-109918630D01*
X148555444Y-109823255D01*
X148506075Y-109737745D01*
X148436255Y-109667925D01*
X148350745Y-109618556D01*
X148255370Y-109593000D01*
X148156630Y-109593000D01*
X148061255Y-109618556D01*
X147975745Y-109667925D01*
X147961499Y-109682170D01*
X147961499Y-109592000D01*
X147981183Y-109524961D01*
X148033987Y-109479206D01*
X148085499Y-109468000D01*
X149231000Y-109468000D01*
X149231000Y-109390500D01*
X149250685Y-109323461D01*
X149303489Y-109277706D01*
X149355000Y-109266500D01*
X156713971Y-109266500D01*
X156781010Y-109286185D01*
G37*
%TD.AperFunction*%
%TA.AperFunction,Conductor*%
G36*
X156763218Y-101938185D02*
G01*
X156808973Y-101990989D01*
X156820178Y-102042198D01*
X156832525Y-107141117D01*
X156832525Y-107141200D01*
X156813002Y-107208287D01*
X156760309Y-107254169D01*
X156708525Y-107265500D01*
X142324702Y-107265500D01*
X142257663Y-107245815D01*
X142211908Y-107193011D01*
X142200703Y-107141119D01*
X142211973Y-103492117D01*
X142231864Y-103425139D01*
X142284809Y-103379547D01*
X142335972Y-103368500D01*
X144671249Y-103368500D01*
X144738288Y-103388185D01*
X144770515Y-103418188D01*
X144775719Y-103425139D01*
X144813454Y-103475546D01*
X144813457Y-103475548D01*
X144928664Y-103561793D01*
X144928671Y-103561797D01*
X145063517Y-103612091D01*
X145063516Y-103612091D01*
X145070444Y-103612835D01*
X145123127Y-103618500D01*
X146268872Y-103618499D01*
X146268875Y-103618498D01*
X146268885Y-103618498D01*
X146286075Y-103616649D01*
X146317748Y-103613245D01*
X146344250Y-103613245D01*
X146393127Y-103618500D01*
X147538872Y-103618499D01*
X147590092Y-103612993D01*
X147616605Y-103612993D01*
X147663160Y-103617999D01*
X147663172Y-103618000D01*
X147736000Y-103618000D01*
X147737607Y-103616392D01*
X147755685Y-103554827D01*
X147785686Y-103522602D01*
X147848546Y-103475546D01*
X147934796Y-103360331D01*
X147985091Y-103225483D01*
X147991500Y-103165873D01*
X147991499Y-102868000D01*
X148736000Y-102868000D01*
X148736000Y-103618000D01*
X148808828Y-103618000D01*
X148808844Y-103617999D01*
X148868372Y-103611598D01*
X148868379Y-103611596D01*
X149003086Y-103561354D01*
X149003093Y-103561350D01*
X149118187Y-103475190D01*
X149118190Y-103475187D01*
X149204350Y-103360093D01*
X149204354Y-103360086D01*
X149254596Y-103225379D01*
X149254598Y-103225372D01*
X149260999Y-103165844D01*
X149261000Y-103165827D01*
X149261000Y-102868000D01*
X148736000Y-102868000D01*
X147991499Y-102868000D01*
X147991499Y-102653829D01*
X148005745Y-102668075D01*
X148091255Y-102717444D01*
X148186630Y-102743000D01*
X148285370Y-102743000D01*
X148380745Y-102717444D01*
X148466255Y-102668075D01*
X148536075Y-102598255D01*
X148585444Y-102512745D01*
X148611000Y-102417370D01*
X148611000Y-102318630D01*
X148585444Y-102223255D01*
X148536075Y-102137745D01*
X148466255Y-102067925D01*
X148380745Y-102018556D01*
X148285370Y-101993000D01*
X148186630Y-101993000D01*
X148091255Y-102018556D01*
X148005745Y-102067925D01*
X147991499Y-102082170D01*
X147991499Y-102042499D01*
X148011184Y-101975461D01*
X148063987Y-101929706D01*
X148115499Y-101918500D01*
X156696179Y-101918500D01*
X156763218Y-101938185D01*
G37*
%TD.AperFunction*%
%TA.AperFunction,Conductor*%
G36*
X156703888Y-87213544D02*
G01*
X156759821Y-87255416D01*
X156784238Y-87320880D01*
X156784554Y-87329426D01*
X156803469Y-95141200D01*
X156783946Y-95208287D01*
X156731253Y-95254169D01*
X156679469Y-95265500D01*
X149656783Y-95265500D01*
X149589744Y-95245815D01*
X149569102Y-95229181D01*
X148201602Y-93861681D01*
X148168117Y-93800358D01*
X148173101Y-93730666D01*
X148214973Y-93674733D01*
X148280437Y-93650316D01*
X148289283Y-93650000D01*
X148572828Y-93650000D01*
X148572844Y-93649999D01*
X148632372Y-93643598D01*
X148632379Y-93643596D01*
X148767086Y-93593354D01*
X148767093Y-93593350D01*
X148882187Y-93507190D01*
X148882190Y-93507187D01*
X148968350Y-93392093D01*
X148968354Y-93392086D01*
X149018596Y-93257379D01*
X149018598Y-93257372D01*
X149024999Y-93197844D01*
X149025000Y-93197827D01*
X149025000Y-92900000D01*
X147879500Y-92900000D01*
X147812461Y-92880315D01*
X147766706Y-92827511D01*
X147755500Y-92776000D01*
X147755499Y-92685829D01*
X147769745Y-92700075D01*
X147855255Y-92749444D01*
X147950630Y-92775000D01*
X148049370Y-92775000D01*
X148144745Y-92749444D01*
X148230255Y-92700075D01*
X148300075Y-92630255D01*
X148349444Y-92544745D01*
X148375000Y-92449370D01*
X148375000Y-92350630D01*
X148361434Y-92300000D01*
X153700000Y-92300000D01*
X153700000Y-92647844D01*
X153706401Y-92707372D01*
X153706403Y-92707379D01*
X153756645Y-92842086D01*
X153756649Y-92842093D01*
X153842809Y-92957187D01*
X153842812Y-92957190D01*
X153957906Y-93043350D01*
X153957913Y-93043354D01*
X154092620Y-93093596D01*
X154092627Y-93093598D01*
X154152155Y-93099999D01*
X154152172Y-93100000D01*
X154500000Y-93100000D01*
X154500000Y-92300000D01*
X155500000Y-92300000D01*
X155500000Y-93100000D01*
X155847828Y-93100000D01*
X155847844Y-93099999D01*
X155907372Y-93093598D01*
X155907379Y-93093596D01*
X156042086Y-93043354D01*
X156042093Y-93043350D01*
X156157187Y-92957190D01*
X156157190Y-92957187D01*
X156243350Y-92842093D01*
X156243354Y-92842086D01*
X156293596Y-92707379D01*
X156293598Y-92707372D01*
X156299999Y-92647844D01*
X156300000Y-92647827D01*
X156300000Y-92300000D01*
X155500000Y-92300000D01*
X154500000Y-92300000D01*
X153700000Y-92300000D01*
X148361434Y-92300000D01*
X148349444Y-92255255D01*
X148300075Y-92169745D01*
X148230255Y-92099925D01*
X148144745Y-92050556D01*
X148049370Y-92025000D01*
X147950630Y-92025000D01*
X147855255Y-92050556D01*
X147769745Y-92099925D01*
X147755499Y-92114170D01*
X147755499Y-91602129D01*
X147755498Y-91602123D01*
X147749091Y-91542516D01*
X147698797Y-91407671D01*
X147698793Y-91407664D01*
X147612547Y-91292455D01*
X147549688Y-91245398D01*
X147507818Y-91189464D01*
X147500851Y-91150851D01*
X147500000Y-91150000D01*
X148500000Y-91150000D01*
X148500000Y-91900000D01*
X149025000Y-91900000D01*
X149025000Y-91852661D01*
X154600000Y-91852661D01*
X154627259Y-91954394D01*
X154679920Y-92045606D01*
X154754394Y-92120080D01*
X154845606Y-92172741D01*
X154947339Y-92200000D01*
X155052661Y-92200000D01*
X155154394Y-92172741D01*
X155245606Y-92120080D01*
X155320080Y-92045606D01*
X155372741Y-91954394D01*
X155400000Y-91852661D01*
X155400000Y-91747339D01*
X155372741Y-91645606D01*
X155320080Y-91554394D01*
X155245606Y-91479920D01*
X155154394Y-91427259D01*
X155052661Y-91400000D01*
X154947339Y-91400000D01*
X154845606Y-91427259D01*
X154754394Y-91479920D01*
X154679920Y-91554394D01*
X154627259Y-91645606D01*
X154600000Y-91747339D01*
X154600000Y-91852661D01*
X149025000Y-91852661D01*
X149025000Y-91602172D01*
X149024999Y-91602155D01*
X149018598Y-91542627D01*
X149018596Y-91542620D01*
X148968354Y-91407913D01*
X148968350Y-91407906D01*
X148887571Y-91300000D01*
X153700000Y-91300000D01*
X154500000Y-91300000D01*
X154500000Y-90500000D01*
X155500000Y-90500000D01*
X155500000Y-91300000D01*
X156300000Y-91300000D01*
X156300000Y-90952172D01*
X156299999Y-90952155D01*
X156293598Y-90892627D01*
X156293596Y-90892620D01*
X156243354Y-90757913D01*
X156243350Y-90757906D01*
X156157190Y-90642812D01*
X156157187Y-90642809D01*
X156042093Y-90556649D01*
X156042086Y-90556645D01*
X155907379Y-90506403D01*
X155907372Y-90506401D01*
X155847844Y-90500000D01*
X155500000Y-90500000D01*
X154500000Y-90500000D01*
X154152155Y-90500000D01*
X154092627Y-90506401D01*
X154092620Y-90506403D01*
X153957913Y-90556645D01*
X153957906Y-90556649D01*
X153842812Y-90642809D01*
X153842809Y-90642812D01*
X153756649Y-90757906D01*
X153756645Y-90757913D01*
X153706403Y-90892620D01*
X153706401Y-90892627D01*
X153700000Y-90952155D01*
X153700000Y-91300000D01*
X148887571Y-91300000D01*
X148882190Y-91292812D01*
X148882187Y-91292809D01*
X148767093Y-91206649D01*
X148767086Y-91206645D01*
X148632379Y-91156403D01*
X148632372Y-91156401D01*
X148572844Y-91150000D01*
X148500000Y-91150000D01*
X147500000Y-91150000D01*
X147427169Y-91150000D01*
X147380597Y-91155007D01*
X147354094Y-91155007D01*
X147302873Y-91149500D01*
X147302864Y-91149500D01*
X146157129Y-91149500D01*
X146157118Y-91149501D01*
X146108248Y-91154754D01*
X146081744Y-91154754D01*
X146063303Y-91152771D01*
X146032873Y-91149500D01*
X146032867Y-91149500D01*
X144887129Y-91149500D01*
X144887123Y-91149501D01*
X144827516Y-91155908D01*
X144692671Y-91206202D01*
X144692664Y-91206206D01*
X144577457Y-91292451D01*
X144577451Y-91292457D01*
X144534515Y-91349812D01*
X144478581Y-91391682D01*
X144435249Y-91399500D01*
X142373702Y-91399500D01*
X142306663Y-91379815D01*
X142260908Y-91327011D01*
X142249703Y-91275117D01*
X142258199Y-88524117D01*
X142278090Y-88457139D01*
X142331035Y-88411547D01*
X142382198Y-88400500D01*
X155098542Y-88400500D01*
X155117870Y-88396655D01*
X155195188Y-88381275D01*
X155291836Y-88362051D01*
X155345165Y-88339961D01*
X155473914Y-88286632D01*
X155637782Y-88177139D01*
X155777139Y-88037782D01*
X155777140Y-88037779D01*
X155784206Y-88030714D01*
X155784208Y-88030710D01*
X156572876Y-87242043D01*
X156634196Y-87208560D01*
X156703888Y-87213544D01*
G37*
%TD.AperFunction*%
%TA.AperFunction,Conductor*%
G36*
X156714505Y-81820185D02*
G01*
X156760260Y-81872989D01*
X156771466Y-81924200D01*
X156777281Y-84326165D01*
X156757758Y-84393252D01*
X156705065Y-84439134D01*
X156700736Y-84441025D01*
X156659520Y-84458098D01*
X156659517Y-84458099D01*
X156526092Y-84513364D01*
X156526079Y-84513371D01*
X156362219Y-84622859D01*
X156292540Y-84692538D01*
X156222861Y-84762218D01*
X156222858Y-84762221D01*
X154621899Y-86363181D01*
X154560576Y-86396666D01*
X154534218Y-86399500D01*
X142389143Y-86399500D01*
X142322104Y-86379815D01*
X142276349Y-86327011D01*
X142265144Y-86275117D01*
X142273331Y-83624115D01*
X142293222Y-83557139D01*
X142346167Y-83511547D01*
X142397330Y-83500500D01*
X143594218Y-83500500D01*
X143661257Y-83520185D01*
X143681899Y-83536819D01*
X144398181Y-84253101D01*
X144431666Y-84314424D01*
X144434500Y-84340782D01*
X144434500Y-84697869D01*
X144434501Y-84697876D01*
X144440908Y-84757483D01*
X144491202Y-84892328D01*
X144491206Y-84892335D01*
X144577452Y-85007544D01*
X144577455Y-85007547D01*
X144692664Y-85093793D01*
X144692671Y-85093797D01*
X144827517Y-85144091D01*
X144827516Y-85144091D01*
X144834444Y-85144835D01*
X144887127Y-85150500D01*
X146032872Y-85150499D01*
X146032875Y-85150498D01*
X146032885Y-85150498D01*
X146050075Y-85148649D01*
X146081748Y-85145245D01*
X146108250Y-85145245D01*
X146157127Y-85150500D01*
X147302872Y-85150499D01*
X147354092Y-85144993D01*
X147380605Y-85144993D01*
X147427160Y-85149999D01*
X147427172Y-85150000D01*
X147500000Y-85150000D01*
X147501607Y-85148392D01*
X147519685Y-85086827D01*
X147549686Y-85054602D01*
X147612546Y-85007546D01*
X147698796Y-84892331D01*
X147749091Y-84757483D01*
X147755500Y-84697873D01*
X147755499Y-84400000D01*
X148500000Y-84400000D01*
X148500000Y-85150000D01*
X148572828Y-85150000D01*
X148572844Y-85149999D01*
X148632372Y-85143598D01*
X148632379Y-85143596D01*
X148767086Y-85093354D01*
X148767093Y-85093350D01*
X148882187Y-85007190D01*
X148882190Y-85007187D01*
X148968350Y-84892093D01*
X148968354Y-84892086D01*
X149018596Y-84757379D01*
X149018598Y-84757372D01*
X149024999Y-84697844D01*
X149025000Y-84697827D01*
X149025000Y-84400000D01*
X148500000Y-84400000D01*
X147755499Y-84400000D01*
X147755499Y-84185829D01*
X147769745Y-84200075D01*
X147855255Y-84249444D01*
X147950630Y-84275000D01*
X148049370Y-84275000D01*
X148144745Y-84249444D01*
X148230255Y-84200075D01*
X148300075Y-84130255D01*
X148349444Y-84044745D01*
X148375000Y-83949370D01*
X148375000Y-83850630D01*
X148349444Y-83755255D01*
X148300075Y-83669745D01*
X148230255Y-83599925D01*
X148144745Y-83550556D01*
X148049370Y-83525000D01*
X147950630Y-83525000D01*
X147855255Y-83550556D01*
X147769745Y-83599925D01*
X147755499Y-83614170D01*
X147755499Y-83523999D01*
X147775184Y-83456961D01*
X147827987Y-83411206D01*
X147879499Y-83400000D01*
X149025000Y-83400000D01*
X149025000Y-83102172D01*
X149024999Y-83102155D01*
X149018598Y-83042627D01*
X149018596Y-83042620D01*
X148968354Y-82907913D01*
X148968350Y-82907906D01*
X148882190Y-82792812D01*
X148882187Y-82792809D01*
X148767093Y-82706649D01*
X148767086Y-82706645D01*
X148632379Y-82656403D01*
X148632372Y-82656401D01*
X148572844Y-82650000D01*
X148289282Y-82650000D01*
X148222243Y-82630315D01*
X148176488Y-82577511D01*
X148166544Y-82508353D01*
X148195569Y-82444797D01*
X148201601Y-82438319D01*
X148803101Y-81836819D01*
X148864424Y-81803334D01*
X148890782Y-81800500D01*
X156647466Y-81800500D01*
X156714505Y-81820185D01*
G37*
%TD.AperFunction*%
%TA.AperFunction,Conductor*%
G36*
X156700908Y-76204185D02*
G01*
X156746663Y-76256989D01*
X156757868Y-76308198D01*
X156759260Y-76882620D01*
X156766021Y-79675200D01*
X156746498Y-79742287D01*
X156693805Y-79788169D01*
X156642021Y-79799500D01*
X148326455Y-79799500D01*
X148229812Y-79818724D01*
X148133167Y-79837947D01*
X148133161Y-79837949D01*
X148079834Y-79860037D01*
X148079834Y-79860038D01*
X148034315Y-79878892D01*
X147951089Y-79913366D01*
X147951079Y-79913371D01*
X147787219Y-80022859D01*
X147717540Y-80092538D01*
X147647861Y-80162218D01*
X147647858Y-80162221D01*
X146092221Y-81717858D01*
X146092218Y-81717861D01*
X146048028Y-81762051D01*
X145952859Y-81857219D01*
X145843371Y-82021079D01*
X145843366Y-82021089D01*
X145790038Y-82149832D01*
X145790038Y-82149834D01*
X145780404Y-82173093D01*
X145767947Y-82203167D01*
X145766953Y-82208168D01*
X145729500Y-82396454D01*
X145729500Y-82455218D01*
X145709815Y-82522257D01*
X145657011Y-82568012D01*
X145587853Y-82577956D01*
X145524297Y-82548931D01*
X145517819Y-82542899D01*
X144841479Y-81866559D01*
X144841459Y-81866537D01*
X144697785Y-81722863D01*
X144697781Y-81722860D01*
X144533920Y-81613371D01*
X144533911Y-81613366D01*
X144446450Y-81577139D01*
X144405165Y-81560038D01*
X144351836Y-81537949D01*
X144351832Y-81537948D01*
X144351828Y-81537946D01*
X144255188Y-81518724D01*
X144158544Y-81499500D01*
X144158541Y-81499500D01*
X142404276Y-81499500D01*
X142337237Y-81479815D01*
X142291482Y-81427011D01*
X142280277Y-81375117D01*
X142288032Y-78864117D01*
X142307923Y-78797139D01*
X142360868Y-78751547D01*
X142412031Y-78740500D01*
X144435249Y-78740500D01*
X144502288Y-78760185D01*
X144534515Y-78790188D01*
X144539719Y-78797139D01*
X144577454Y-78847546D01*
X144577457Y-78847548D01*
X144692664Y-78933793D01*
X144692671Y-78933797D01*
X144827517Y-78984091D01*
X144827516Y-78984091D01*
X144834444Y-78984835D01*
X144887127Y-78990500D01*
X146032872Y-78990499D01*
X146032875Y-78990498D01*
X146032885Y-78990498D01*
X146050075Y-78988649D01*
X146081748Y-78985245D01*
X146108250Y-78985245D01*
X146157127Y-78990500D01*
X147302872Y-78990499D01*
X147354092Y-78984993D01*
X147380605Y-78984993D01*
X147427160Y-78989999D01*
X147427172Y-78990000D01*
X147500000Y-78990000D01*
X147501607Y-78988392D01*
X147519685Y-78926827D01*
X147549686Y-78894602D01*
X147612546Y-78847546D01*
X147698796Y-78732331D01*
X147749091Y-78597483D01*
X147755500Y-78537873D01*
X147755499Y-78240000D01*
X148500000Y-78240000D01*
X148500000Y-78990000D01*
X148572828Y-78990000D01*
X148572844Y-78989999D01*
X148632372Y-78983598D01*
X148632379Y-78983596D01*
X148767086Y-78933354D01*
X148767093Y-78933350D01*
X148882187Y-78847190D01*
X148882190Y-78847187D01*
X148968350Y-78732093D01*
X148968354Y-78732086D01*
X149018596Y-78597379D01*
X149018598Y-78597372D01*
X149024999Y-78537844D01*
X149025000Y-78537827D01*
X149025000Y-78240000D01*
X148500000Y-78240000D01*
X147755499Y-78240000D01*
X147755499Y-78025829D01*
X147769745Y-78040075D01*
X147855255Y-78089444D01*
X147950630Y-78115000D01*
X148049370Y-78115000D01*
X148144745Y-78089444D01*
X148230255Y-78040075D01*
X148300075Y-77970255D01*
X148349444Y-77884745D01*
X148375000Y-77789370D01*
X148375000Y-77690630D01*
X148349444Y-77595255D01*
X148300075Y-77509745D01*
X148230255Y-77439925D01*
X148144745Y-77390556D01*
X148049370Y-77365000D01*
X147950630Y-77365000D01*
X147855255Y-77390556D01*
X147769745Y-77439925D01*
X147755499Y-77454170D01*
X147755499Y-77363999D01*
X147775184Y-77296961D01*
X147827987Y-77251206D01*
X147879499Y-77240000D01*
X149025000Y-77240000D01*
X149025000Y-76942172D01*
X149024999Y-76942155D01*
X149018598Y-76882627D01*
X149018596Y-76882620D01*
X148968354Y-76747913D01*
X148968350Y-76747906D01*
X148882190Y-76632812D01*
X148882187Y-76632809D01*
X148767093Y-76546649D01*
X148767086Y-76546645D01*
X148632379Y-76496403D01*
X148632372Y-76496401D01*
X148572844Y-76490000D01*
X148324283Y-76490000D01*
X148257244Y-76470315D01*
X148211489Y-76417511D01*
X148201545Y-76348353D01*
X148230570Y-76284797D01*
X148236602Y-76278319D01*
X148294102Y-76220819D01*
X148355425Y-76187334D01*
X148381783Y-76184500D01*
X156633869Y-76184500D01*
X156700908Y-76204185D01*
G37*
%TD.AperFunction*%
%TA.AperFunction,Conductor*%
G36*
X156681843Y-68330185D02*
G01*
X156727598Y-68382989D01*
X156738803Y-68434196D01*
X156745863Y-71349999D01*
X156747503Y-72027200D01*
X156727980Y-72094287D01*
X156675287Y-72140169D01*
X156623503Y-72151500D01*
X142433146Y-72151500D01*
X142366107Y-72131815D01*
X142320352Y-72079011D01*
X142309147Y-72027117D01*
X142311236Y-71350497D01*
X142311626Y-71224114D01*
X142331517Y-71157139D01*
X142384462Y-71111547D01*
X142435625Y-71100500D01*
X144535249Y-71100500D01*
X144602288Y-71120185D01*
X144634515Y-71150188D01*
X144639719Y-71157139D01*
X144677454Y-71207546D01*
X144677457Y-71207548D01*
X144792664Y-71293793D01*
X144792671Y-71293797D01*
X144927517Y-71344091D01*
X144927516Y-71344091D01*
X144934444Y-71344835D01*
X144987127Y-71350500D01*
X146132872Y-71350499D01*
X146132875Y-71350498D01*
X146132885Y-71350498D01*
X146150075Y-71348649D01*
X146181748Y-71345245D01*
X146208250Y-71345245D01*
X146257127Y-71350500D01*
X147402872Y-71350499D01*
X147454092Y-71344993D01*
X147480605Y-71344993D01*
X147527160Y-71349999D01*
X147527172Y-71350000D01*
X147600000Y-71350000D01*
X147601607Y-71348392D01*
X147619685Y-71286827D01*
X147649686Y-71254602D01*
X147712546Y-71207546D01*
X147798796Y-71092331D01*
X147849091Y-70957483D01*
X147855500Y-70897873D01*
X147855499Y-70600000D01*
X148600000Y-70600000D01*
X148600000Y-71350000D01*
X148672828Y-71350000D01*
X148672844Y-71349999D01*
X148732372Y-71343598D01*
X148732379Y-71343596D01*
X148867086Y-71293354D01*
X148867093Y-71293350D01*
X148982187Y-71207190D01*
X148982190Y-71207187D01*
X149068350Y-71092093D01*
X149068354Y-71092086D01*
X149118596Y-70957379D01*
X149118598Y-70957372D01*
X149124999Y-70897844D01*
X149125000Y-70897827D01*
X149125000Y-70600000D01*
X148600000Y-70600000D01*
X147855499Y-70600000D01*
X147855499Y-70385829D01*
X147869745Y-70400075D01*
X147955255Y-70449444D01*
X148050630Y-70475000D01*
X148149370Y-70475000D01*
X148244745Y-70449444D01*
X148330255Y-70400075D01*
X148400075Y-70330255D01*
X148449444Y-70244745D01*
X148475000Y-70149370D01*
X148475000Y-70050630D01*
X148449444Y-69955255D01*
X148400075Y-69869745D01*
X148330255Y-69799925D01*
X148244745Y-69750556D01*
X148149370Y-69725000D01*
X148050630Y-69725000D01*
X147955255Y-69750556D01*
X147869745Y-69799925D01*
X147855499Y-69814170D01*
X147855499Y-69723999D01*
X147875184Y-69656961D01*
X147927987Y-69611206D01*
X147979499Y-69600000D01*
X149125000Y-69600000D01*
X149125000Y-69302172D01*
X149124999Y-69302155D01*
X149118598Y-69242627D01*
X149118596Y-69242620D01*
X149068354Y-69107913D01*
X149068350Y-69107906D01*
X148982190Y-68992812D01*
X148982187Y-68992809D01*
X148867093Y-68906649D01*
X148867086Y-68906645D01*
X148732379Y-68856403D01*
X148732372Y-68856401D01*
X148672844Y-68850000D01*
X148389282Y-68850000D01*
X148322243Y-68830315D01*
X148276488Y-68777511D01*
X148266544Y-68708353D01*
X148295569Y-68644797D01*
X148301601Y-68638319D01*
X148593101Y-68346819D01*
X148654424Y-68313334D01*
X148680782Y-68310500D01*
X156614804Y-68310500D01*
X156681843Y-68330185D01*
G37*
%TD.AperFunction*%
%TD*%
%TA.AperFunction,Conductor*%
%TO.N,GND*%
G36*
X218637039Y-63011685D02*
G01*
X218682794Y-63064489D01*
X218694000Y-63116000D01*
X218694000Y-139830000D01*
X218674315Y-139897039D01*
X218621511Y-139942794D01*
X218570000Y-139954000D01*
X195606773Y-139954000D01*
X195539734Y-139934315D01*
X195526526Y-139924533D01*
X194304320Y-138887033D01*
X194265951Y-138828642D01*
X194265241Y-138758775D01*
X194302417Y-138699617D01*
X194365674Y-138669948D01*
X194384567Y-138668500D01*
X202624820Y-138668500D01*
X202691859Y-138688185D01*
X202724085Y-138718187D01*
X202804454Y-138825546D01*
X202808590Y-138828642D01*
X202919664Y-138911793D01*
X202919671Y-138911797D01*
X203054517Y-138962091D01*
X203054516Y-138962091D01*
X203061444Y-138962835D01*
X203114127Y-138968500D01*
X204809872Y-138968499D01*
X204869483Y-138962091D01*
X205004331Y-138911796D01*
X205119546Y-138825546D01*
X205132733Y-138807929D01*
X205188666Y-138766058D01*
X205258358Y-138761074D01*
X205319681Y-138794558D01*
X205331267Y-138807930D01*
X205344454Y-138825546D01*
X205344455Y-138825547D01*
X205459664Y-138911793D01*
X205459671Y-138911797D01*
X205594517Y-138962091D01*
X205594516Y-138962091D01*
X205601444Y-138962835D01*
X205654127Y-138968500D01*
X207349872Y-138968499D01*
X207409483Y-138962091D01*
X207544331Y-138911796D01*
X207659546Y-138825546D01*
X207745796Y-138710331D01*
X207796091Y-138575483D01*
X207802500Y-138515873D01*
X207802499Y-136820128D01*
X207796091Y-136760517D01*
X207775738Y-136705949D01*
X207745797Y-136625671D01*
X207745793Y-136625664D01*
X207659547Y-136510455D01*
X207552188Y-136430085D01*
X207510318Y-136374151D01*
X207502500Y-136330819D01*
X207502500Y-132334005D01*
X208425357Y-132334005D01*
X208445890Y-132581812D01*
X208445892Y-132581824D01*
X208506936Y-132822881D01*
X208606826Y-133050606D01*
X208742833Y-133258782D01*
X208742836Y-133258785D01*
X208911256Y-133441738D01*
X209107491Y-133594474D01*
X209326190Y-133712828D01*
X209561386Y-133793571D01*
X209806665Y-133834500D01*
X210055335Y-133834500D01*
X210300614Y-133793571D01*
X210535810Y-133712828D01*
X210754509Y-133594474D01*
X210938014Y-133451645D01*
X211003008Y-133426004D01*
X211014176Y-133425500D01*
X212783023Y-133425500D01*
X212850062Y-133445185D01*
X212895817Y-133497989D01*
X212903266Y-133525134D01*
X212904124Y-133524932D01*
X212905907Y-133532479D01*
X212956202Y-133667328D01*
X212956206Y-133667335D01*
X213042452Y-133782544D01*
X213042455Y-133782547D01*
X213157664Y-133868793D01*
X213157671Y-133868797D01*
X213292517Y-133919091D01*
X213292516Y-133919091D01*
X213299444Y-133919835D01*
X213352127Y-133925500D01*
X215447872Y-133925499D01*
X215507483Y-133919091D01*
X215642331Y-133868796D01*
X215757546Y-133782546D01*
X215843796Y-133667331D01*
X215894091Y-133532483D01*
X215900500Y-133472873D01*
X215900499Y-131377128D01*
X215894091Y-131317517D01*
X215843796Y-131182669D01*
X215843795Y-131182668D01*
X215843793Y-131182664D01*
X215757547Y-131067455D01*
X215757544Y-131067452D01*
X215642335Y-130981206D01*
X215642328Y-130981202D01*
X215507482Y-130930908D01*
X215507483Y-130930908D01*
X215447883Y-130924501D01*
X215447881Y-130924500D01*
X215447873Y-130924500D01*
X215447864Y-130924500D01*
X213352129Y-130924500D01*
X213352123Y-130924501D01*
X213292516Y-130930908D01*
X213157671Y-130981202D01*
X213157664Y-130981206D01*
X213042455Y-131067452D01*
X213042452Y-131067455D01*
X212956206Y-131182664D01*
X212956202Y-131182671D01*
X212905908Y-131317517D01*
X212904126Y-131325062D01*
X212901853Y-131324525D01*
X212879571Y-131378312D01*
X212822177Y-131418157D01*
X212783024Y-131424500D01*
X211187626Y-131424500D01*
X211120587Y-131404815D01*
X211096398Y-131384485D01*
X210950744Y-131226262D01*
X210754509Y-131073526D01*
X210754507Y-131073525D01*
X210754506Y-131073524D01*
X210535811Y-130955172D01*
X210535802Y-130955169D01*
X210300616Y-130874429D01*
X210055335Y-130833500D01*
X209806665Y-130833500D01*
X209561383Y-130874429D01*
X209326197Y-130955169D01*
X209326188Y-130955172D01*
X209107493Y-131073524D01*
X208911257Y-131226261D01*
X208742833Y-131409217D01*
X208606826Y-131617393D01*
X208506936Y-131845118D01*
X208445892Y-132086175D01*
X208445890Y-132086187D01*
X208425357Y-132333994D01*
X208425357Y-132334005D01*
X207502500Y-132334005D01*
X207502500Y-125305000D01*
X212900000Y-125305000D01*
X212900000Y-125852844D01*
X212906401Y-125912372D01*
X212906403Y-125912379D01*
X212956645Y-126047086D01*
X212956649Y-126047093D01*
X213042809Y-126162187D01*
X213042812Y-126162190D01*
X213157906Y-126248350D01*
X213157913Y-126248354D01*
X213292620Y-126298596D01*
X213292627Y-126298598D01*
X213352155Y-126304999D01*
X213352172Y-126305000D01*
X213900000Y-126305000D01*
X213900000Y-125305000D01*
X214900000Y-125305000D01*
X214900000Y-126305000D01*
X215447828Y-126305000D01*
X215447844Y-126304999D01*
X215507372Y-126298598D01*
X215507379Y-126298596D01*
X215642086Y-126248354D01*
X215642093Y-126248350D01*
X215757187Y-126162190D01*
X215757190Y-126162187D01*
X215843350Y-126047093D01*
X215843354Y-126047086D01*
X215893596Y-125912379D01*
X215893598Y-125912372D01*
X215899999Y-125852844D01*
X215900000Y-125852827D01*
X215900000Y-125305000D01*
X214900000Y-125305000D01*
X213900000Y-125305000D01*
X212900000Y-125305000D01*
X207502500Y-125305000D01*
X207502500Y-124857661D01*
X214000000Y-124857661D01*
X214027259Y-124959394D01*
X214079920Y-125050606D01*
X214154394Y-125125080D01*
X214245606Y-125177741D01*
X214347339Y-125205000D01*
X214452661Y-125205000D01*
X214554394Y-125177741D01*
X214645606Y-125125080D01*
X214720080Y-125050606D01*
X214772741Y-124959394D01*
X214800000Y-124857661D01*
X214800000Y-124752339D01*
X214772741Y-124650606D01*
X214720080Y-124559394D01*
X214645606Y-124484920D01*
X214554394Y-124432259D01*
X214452661Y-124405000D01*
X214347339Y-124405000D01*
X214245606Y-124432259D01*
X214154394Y-124484920D01*
X214079920Y-124559394D01*
X214027259Y-124650606D01*
X214000000Y-124752339D01*
X214000000Y-124857661D01*
X207502500Y-124857661D01*
X207502500Y-124305000D01*
X212900000Y-124305000D01*
X213900000Y-124305000D01*
X213900000Y-123305000D01*
X214900000Y-123305000D01*
X214900000Y-124305000D01*
X215900000Y-124305000D01*
X215900000Y-123757172D01*
X215899999Y-123757155D01*
X215893598Y-123697627D01*
X215893596Y-123697620D01*
X215843354Y-123562913D01*
X215843350Y-123562906D01*
X215757190Y-123447812D01*
X215757187Y-123447809D01*
X215642093Y-123361649D01*
X215642086Y-123361645D01*
X215507379Y-123311403D01*
X215507372Y-123311401D01*
X215447844Y-123305000D01*
X214900000Y-123305000D01*
X213900000Y-123305000D01*
X213352155Y-123305000D01*
X213292627Y-123311401D01*
X213292620Y-123311403D01*
X213157913Y-123361645D01*
X213157906Y-123361649D01*
X213042812Y-123447809D01*
X213042809Y-123447812D01*
X212956649Y-123562906D01*
X212956645Y-123562913D01*
X212906403Y-123697620D01*
X212906401Y-123697627D01*
X212900000Y-123757155D01*
X212900000Y-124305000D01*
X207502500Y-124305000D01*
X207502500Y-115408976D01*
X207522185Y-115341937D01*
X207574989Y-115296182D01*
X207602135Y-115288736D01*
X207601932Y-115287876D01*
X207609479Y-115286092D01*
X207609481Y-115286091D01*
X207609483Y-115286091D01*
X207728667Y-115241637D01*
X207798358Y-115236654D01*
X207815329Y-115241636D01*
X207934517Y-115286091D01*
X207934516Y-115286091D01*
X207941444Y-115286835D01*
X207994127Y-115292500D01*
X210089872Y-115292499D01*
X210149483Y-115286091D01*
X210268667Y-115241637D01*
X210338358Y-115236654D01*
X210355329Y-115241636D01*
X210474517Y-115286091D01*
X210474516Y-115286091D01*
X210481444Y-115286835D01*
X210534127Y-115292500D01*
X212629872Y-115292499D01*
X212689483Y-115286091D01*
X212808667Y-115241637D01*
X212878358Y-115236654D01*
X212895329Y-115241636D01*
X213014517Y-115286091D01*
X213014516Y-115286091D01*
X213021444Y-115286835D01*
X213074127Y-115292500D01*
X215169872Y-115292499D01*
X215229483Y-115286091D01*
X215348667Y-115241637D01*
X215418358Y-115236654D01*
X215435329Y-115241636D01*
X215554517Y-115286091D01*
X215554516Y-115286091D01*
X215561444Y-115286835D01*
X215614127Y-115292500D01*
X217709872Y-115292499D01*
X217769483Y-115286091D01*
X217904331Y-115235796D01*
X218019546Y-115149546D01*
X218105796Y-115034331D01*
X218156091Y-114899483D01*
X218162500Y-114839873D01*
X218162499Y-112744128D01*
X218156091Y-112684517D01*
X218105796Y-112549669D01*
X218105795Y-112549668D01*
X218105793Y-112549664D01*
X218019547Y-112434455D01*
X218019544Y-112434452D01*
X217904335Y-112348206D01*
X217904328Y-112348202D01*
X217769482Y-112297908D01*
X217769483Y-112297908D01*
X217709883Y-112291501D01*
X217709881Y-112291500D01*
X217709873Y-112291500D01*
X217709864Y-112291500D01*
X215614129Y-112291500D01*
X215614123Y-112291501D01*
X215554516Y-112297908D01*
X215435333Y-112342361D01*
X215365641Y-112347345D01*
X215348667Y-112342361D01*
X215229482Y-112297908D01*
X215229483Y-112297908D01*
X215169883Y-112291501D01*
X215169881Y-112291500D01*
X215169873Y-112291500D01*
X215169864Y-112291500D01*
X213074129Y-112291500D01*
X213074123Y-112291501D01*
X213014516Y-112297908D01*
X212895333Y-112342361D01*
X212825641Y-112347345D01*
X212808667Y-112342361D01*
X212689482Y-112297908D01*
X212689483Y-112297908D01*
X212629883Y-112291501D01*
X212629881Y-112291500D01*
X212629873Y-112291500D01*
X212629864Y-112291500D01*
X210534129Y-112291500D01*
X210534123Y-112291501D01*
X210474516Y-112297908D01*
X210355333Y-112342361D01*
X210285641Y-112347345D01*
X210268667Y-112342361D01*
X210149482Y-112297908D01*
X210149483Y-112297908D01*
X210089883Y-112291501D01*
X210089881Y-112291500D01*
X210089873Y-112291500D01*
X210089864Y-112291500D01*
X207994129Y-112291500D01*
X207994123Y-112291501D01*
X207934516Y-112297908D01*
X207815333Y-112342361D01*
X207745641Y-112347345D01*
X207728667Y-112342361D01*
X207609482Y-112297908D01*
X207609483Y-112297908D01*
X207549883Y-112291501D01*
X207549881Y-112291500D01*
X207549873Y-112291500D01*
X207549864Y-112291500D01*
X205454129Y-112291500D01*
X205454123Y-112291501D01*
X205394515Y-112297909D01*
X205274617Y-112342627D01*
X205204925Y-112347611D01*
X205187953Y-112342627D01*
X205069382Y-112298403D01*
X205069372Y-112298401D01*
X205009844Y-112292000D01*
X204462000Y-112292000D01*
X204462000Y-113726174D01*
X204427925Y-113599007D01*
X204362099Y-113484993D01*
X204269007Y-113391901D01*
X204154993Y-113326075D01*
X204027826Y-113292000D01*
X203896174Y-113292000D01*
X203769007Y-113326075D01*
X203654993Y-113391901D01*
X203561901Y-113484993D01*
X203496075Y-113599007D01*
X203462000Y-113726174D01*
X203462000Y-112292000D01*
X202914155Y-112292000D01*
X202854627Y-112298401D01*
X202854619Y-112298403D01*
X202736046Y-112342628D01*
X202666354Y-112347612D01*
X202649384Y-112342629D01*
X202579356Y-112316510D01*
X202529481Y-112297908D01*
X202529483Y-112297908D01*
X202469883Y-112291501D01*
X202469881Y-112291500D01*
X202469873Y-112291500D01*
X202469864Y-112291500D01*
X200374129Y-112291500D01*
X200374123Y-112291501D01*
X200314516Y-112297908D01*
X200195333Y-112342361D01*
X200125641Y-112347345D01*
X200108667Y-112342361D01*
X199989482Y-112297908D01*
X199989483Y-112297908D01*
X199929883Y-112291501D01*
X199929881Y-112291500D01*
X199929873Y-112291500D01*
X199929864Y-112291500D01*
X197834129Y-112291500D01*
X197834123Y-112291501D01*
X197774516Y-112297908D01*
X197655333Y-112342361D01*
X197585641Y-112347345D01*
X197568667Y-112342361D01*
X197449482Y-112297908D01*
X197449483Y-112297908D01*
X197389883Y-112291501D01*
X197389881Y-112291500D01*
X197389873Y-112291500D01*
X197389864Y-112291500D01*
X195294129Y-112291500D01*
X195294123Y-112291501D01*
X195234516Y-112297908D01*
X195115333Y-112342361D01*
X195045641Y-112347345D01*
X195028667Y-112342361D01*
X194909482Y-112297908D01*
X194901938Y-112296126D01*
X194902474Y-112293853D01*
X194848688Y-112271571D01*
X194808843Y-112214177D01*
X194802500Y-112175024D01*
X194802500Y-105985180D01*
X194822185Y-105918141D01*
X194852187Y-105885914D01*
X194959546Y-105805546D01*
X195045796Y-105690331D01*
X195096091Y-105555483D01*
X195102500Y-105495873D01*
X195102499Y-103800128D01*
X195096091Y-103740517D01*
X195066992Y-103662499D01*
X195045797Y-103605671D01*
X195045793Y-103605664D01*
X194959547Y-103490455D01*
X194959544Y-103490452D01*
X194844335Y-103404206D01*
X194844328Y-103404202D01*
X194709482Y-103353908D01*
X194709483Y-103353908D01*
X194649883Y-103347501D01*
X194649881Y-103347500D01*
X194649873Y-103347500D01*
X194649864Y-103347500D01*
X192954129Y-103347500D01*
X192954123Y-103347501D01*
X192894516Y-103353908D01*
X192759671Y-103404202D01*
X192759664Y-103404206D01*
X192644455Y-103490452D01*
X192644452Y-103490455D01*
X192558206Y-103605664D01*
X192558202Y-103605671D01*
X192507908Y-103740517D01*
X192501501Y-103800116D01*
X192501501Y-103800123D01*
X192501500Y-103800135D01*
X192501500Y-105495870D01*
X192501501Y-105495876D01*
X192507908Y-105555483D01*
X192558202Y-105690328D01*
X192558206Y-105690335D01*
X192627358Y-105782709D01*
X192644454Y-105805546D01*
X192751811Y-105885914D01*
X192793682Y-105941847D01*
X192801500Y-105985180D01*
X192801500Y-112175023D01*
X192781815Y-112242062D01*
X192729011Y-112287817D01*
X192701865Y-112295266D01*
X192702068Y-112296124D01*
X192694519Y-112297907D01*
X192575333Y-112342361D01*
X192505641Y-112347345D01*
X192488667Y-112342361D01*
X192369482Y-112297908D01*
X192369483Y-112297908D01*
X192309883Y-112291501D01*
X192309881Y-112291500D01*
X192309873Y-112291500D01*
X192309864Y-112291500D01*
X190214129Y-112291500D01*
X190214123Y-112291501D01*
X190154516Y-112297908D01*
X190035333Y-112342361D01*
X189965641Y-112347345D01*
X189948667Y-112342361D01*
X189829482Y-112297908D01*
X189821938Y-112296126D01*
X189822474Y-112293853D01*
X189768688Y-112271571D01*
X189728843Y-112214177D01*
X189722500Y-112175024D01*
X189722500Y-110303180D01*
X189742185Y-110236141D01*
X189772187Y-110203914D01*
X189879546Y-110123546D01*
X189965796Y-110008331D01*
X190016091Y-109873483D01*
X190022500Y-109813873D01*
X190022499Y-108118128D01*
X190016091Y-108058517D01*
X189965796Y-107923669D01*
X189965795Y-107923668D01*
X189965793Y-107923664D01*
X189879547Y-107808455D01*
X189879544Y-107808452D01*
X189764335Y-107722206D01*
X189764328Y-107722202D01*
X189629482Y-107671908D01*
X189629483Y-107671908D01*
X189569883Y-107665501D01*
X189569881Y-107665500D01*
X189569873Y-107665500D01*
X189569864Y-107665500D01*
X187874129Y-107665500D01*
X187874123Y-107665501D01*
X187814516Y-107671908D01*
X187679671Y-107722202D01*
X187679664Y-107722206D01*
X187564455Y-107808452D01*
X187564452Y-107808455D01*
X187478206Y-107923664D01*
X187478202Y-107923671D01*
X187427908Y-108058517D01*
X187421501Y-108118116D01*
X187421501Y-108118123D01*
X187421500Y-108118135D01*
X187421500Y-109813870D01*
X187421501Y-109813876D01*
X187427908Y-109873483D01*
X187478202Y-110008328D01*
X187478206Y-110008335D01*
X187547358Y-110100709D01*
X187564454Y-110123546D01*
X187671811Y-110203914D01*
X187713682Y-110259847D01*
X187721500Y-110303180D01*
X187721500Y-112175023D01*
X187701815Y-112242062D01*
X187649011Y-112287817D01*
X187621865Y-112295266D01*
X187622068Y-112296124D01*
X187614519Y-112297907D01*
X187495333Y-112342361D01*
X187425641Y-112347345D01*
X187408667Y-112342361D01*
X187289482Y-112297908D01*
X187289483Y-112297908D01*
X187229883Y-112291501D01*
X187229881Y-112291500D01*
X187229873Y-112291500D01*
X187229864Y-112291500D01*
X185134129Y-112291500D01*
X185134123Y-112291501D01*
X185074516Y-112297908D01*
X184955333Y-112342361D01*
X184885641Y-112347345D01*
X184868667Y-112342361D01*
X184749482Y-112297908D01*
X184749483Y-112297908D01*
X184689883Y-112291501D01*
X184689881Y-112291500D01*
X184689873Y-112291500D01*
X184689864Y-112291500D01*
X182594129Y-112291500D01*
X182594123Y-112291501D01*
X182534516Y-112297908D01*
X182415333Y-112342361D01*
X182345641Y-112347345D01*
X182328667Y-112342361D01*
X182209482Y-112297908D01*
X182209483Y-112297908D01*
X182149883Y-112291501D01*
X182149881Y-112291500D01*
X182149873Y-112291500D01*
X182149864Y-112291500D01*
X180054129Y-112291500D01*
X180054123Y-112291501D01*
X179994516Y-112297908D01*
X179875333Y-112342361D01*
X179805641Y-112347345D01*
X179788667Y-112342361D01*
X179669482Y-112297908D01*
X179669483Y-112297908D01*
X179609883Y-112291501D01*
X179609881Y-112291500D01*
X179609873Y-112291500D01*
X179609864Y-112291500D01*
X177514129Y-112291500D01*
X177514123Y-112291501D01*
X177454516Y-112297908D01*
X177335333Y-112342361D01*
X177265641Y-112347345D01*
X177248667Y-112342361D01*
X177129482Y-112297908D01*
X177121938Y-112296126D01*
X177122474Y-112293854D01*
X177068685Y-112271567D01*
X177028843Y-112214170D01*
X177026357Y-112144345D01*
X177055272Y-112091042D01*
X177210164Y-111922785D01*
X177346173Y-111714607D01*
X177446063Y-111486881D01*
X177507108Y-111245821D01*
X177527643Y-110998000D01*
X177507108Y-110750179D01*
X177446063Y-110509119D01*
X177346173Y-110281393D01*
X177332096Y-110259847D01*
X177210166Y-110073217D01*
X177150431Y-110008328D01*
X177041744Y-109890262D01*
X176845509Y-109737526D01*
X176845507Y-109737525D01*
X176845506Y-109737524D01*
X176626811Y-109619172D01*
X176626802Y-109619169D01*
X176391616Y-109538429D01*
X176238079Y-109512809D01*
X176175193Y-109482359D01*
X176138754Y-109422744D01*
X176140329Y-109352892D01*
X176179418Y-109294980D01*
X176243612Y-109267396D01*
X176258488Y-109266500D01*
X182217501Y-109266500D01*
X182284540Y-109286185D01*
X182330295Y-109338989D01*
X182341501Y-109390500D01*
X182341501Y-109813876D01*
X182347908Y-109873483D01*
X182398202Y-110008328D01*
X182398206Y-110008335D01*
X182484452Y-110123544D01*
X182484455Y-110123547D01*
X182599664Y-110209793D01*
X182599671Y-110209797D01*
X182734517Y-110260091D01*
X182734516Y-110260091D01*
X182741444Y-110260835D01*
X182794127Y-110266500D01*
X184489872Y-110266499D01*
X184549483Y-110260091D01*
X184684331Y-110209796D01*
X184799546Y-110123546D01*
X184885796Y-110008331D01*
X184936091Y-109873483D01*
X184942500Y-109813873D01*
X184942499Y-108118128D01*
X184936091Y-108058517D01*
X184885796Y-107923669D01*
X184885795Y-107923668D01*
X184885793Y-107923664D01*
X184799547Y-107808455D01*
X184799544Y-107808452D01*
X184684335Y-107722206D01*
X184684328Y-107722202D01*
X184549482Y-107671908D01*
X184549483Y-107671908D01*
X184489883Y-107665501D01*
X184489881Y-107665500D01*
X184489873Y-107665500D01*
X184489865Y-107665500D01*
X183807783Y-107665500D01*
X183740744Y-107645815D01*
X183720101Y-107629181D01*
X183719139Y-107628219D01*
X183719139Y-107628218D01*
X183579782Y-107488861D01*
X183579781Y-107488860D01*
X183579780Y-107488859D01*
X183415920Y-107379371D01*
X183415911Y-107379366D01*
X183343315Y-107349296D01*
X183287165Y-107326038D01*
X183233836Y-107303949D01*
X183233832Y-107303948D01*
X183233828Y-107303946D01*
X183137188Y-107284724D01*
X183040544Y-107265500D01*
X183040541Y-107265500D01*
X163753959Y-107265500D01*
X163686920Y-107245815D01*
X163641165Y-107193011D01*
X163631289Y-107159616D01*
X162878273Y-102060616D01*
X162887953Y-101991420D01*
X162933506Y-101938441D01*
X163000469Y-101918501D01*
X163000943Y-101918500D01*
X169110218Y-101918500D01*
X169177257Y-101938185D01*
X169197899Y-101954819D01*
X169683181Y-102440102D01*
X169716666Y-102501425D01*
X169719500Y-102527783D01*
X169719500Y-103209870D01*
X169719501Y-103209876D01*
X169725908Y-103269483D01*
X169776202Y-103404328D01*
X169776206Y-103404335D01*
X169862452Y-103519544D01*
X169862455Y-103519547D01*
X169977664Y-103605793D01*
X169977671Y-103605797D01*
X170112517Y-103656091D01*
X170112516Y-103656091D01*
X170119444Y-103656835D01*
X170172127Y-103662500D01*
X171867872Y-103662499D01*
X171927483Y-103656091D01*
X172062331Y-103605796D01*
X172177546Y-103519546D01*
X172263796Y-103404331D01*
X172314091Y-103269483D01*
X172320500Y-103209873D01*
X172320500Y-103209870D01*
X174799500Y-103209870D01*
X174799501Y-103209876D01*
X174805908Y-103269483D01*
X174856202Y-103404328D01*
X174856206Y-103404335D01*
X174942452Y-103519544D01*
X174942455Y-103519547D01*
X175057664Y-103605793D01*
X175057671Y-103605797D01*
X175192517Y-103656091D01*
X175192516Y-103656091D01*
X175199444Y-103656835D01*
X175252127Y-103662500D01*
X176947872Y-103662499D01*
X177007483Y-103656091D01*
X177142331Y-103605796D01*
X177257546Y-103519546D01*
X177320895Y-103434921D01*
X177376828Y-103393052D01*
X177446520Y-103388068D01*
X177507843Y-103421553D01*
X177511391Y-103425251D01*
X177669256Y-103596738D01*
X177865491Y-103749474D01*
X178084190Y-103867828D01*
X178319386Y-103948571D01*
X178564665Y-103989500D01*
X178813335Y-103989500D01*
X179058614Y-103948571D01*
X179293810Y-103867828D01*
X179512509Y-103749474D01*
X179708744Y-103596738D01*
X179877164Y-103413785D01*
X180013173Y-103205607D01*
X180113063Y-102977881D01*
X180174108Y-102736821D01*
X180174109Y-102736812D01*
X180194643Y-102489005D01*
X180194643Y-102488994D01*
X180174109Y-102241187D01*
X180174107Y-102241175D01*
X180113063Y-102000118D01*
X180013173Y-101772393D01*
X179877166Y-101564217D01*
X179831062Y-101514135D01*
X179708744Y-101381262D01*
X179512509Y-101228526D01*
X179512507Y-101228525D01*
X179512506Y-101228524D01*
X179293811Y-101110172D01*
X179293802Y-101110169D01*
X179058616Y-101029429D01*
X178813335Y-100988500D01*
X178564665Y-100988500D01*
X178319383Y-101029429D01*
X178084197Y-101110169D01*
X178084188Y-101110172D01*
X177865488Y-101228527D01*
X177758486Y-101311811D01*
X177748391Y-101319669D01*
X177728240Y-101335353D01*
X177663246Y-101360996D01*
X177652077Y-101361500D01*
X177437180Y-101361500D01*
X177370141Y-101341815D01*
X177337913Y-101311811D01*
X177257546Y-101204454D01*
X177234709Y-101187358D01*
X177142335Y-101118206D01*
X177142328Y-101118202D01*
X177007482Y-101067908D01*
X177007483Y-101067908D01*
X176947883Y-101061501D01*
X176947881Y-101061500D01*
X176947873Y-101061500D01*
X176947864Y-101061500D01*
X175252129Y-101061500D01*
X175252123Y-101061501D01*
X175192516Y-101067908D01*
X175057671Y-101118202D01*
X175057664Y-101118206D01*
X174942455Y-101204452D01*
X174942452Y-101204455D01*
X174856206Y-101319664D01*
X174856202Y-101319671D01*
X174805908Y-101454517D01*
X174799501Y-101514116D01*
X174799501Y-101514123D01*
X174799500Y-101514135D01*
X174799500Y-103209870D01*
X172320500Y-103209870D01*
X172320499Y-101514128D01*
X172314091Y-101454517D01*
X172286768Y-101381261D01*
X172263797Y-101319671D01*
X172263793Y-101319664D01*
X172177547Y-101204455D01*
X172177544Y-101204452D01*
X172062335Y-101118206D01*
X172062328Y-101118202D01*
X171927482Y-101067908D01*
X171927483Y-101067908D01*
X171867883Y-101061501D01*
X171867881Y-101061500D01*
X171867873Y-101061500D01*
X171867865Y-101061500D01*
X171185783Y-101061500D01*
X171118744Y-101041815D01*
X171098102Y-101025181D01*
X170360209Y-100287289D01*
X170360206Y-100287285D01*
X170360206Y-100287286D01*
X170353139Y-100280219D01*
X170353139Y-100280218D01*
X170213782Y-100140861D01*
X170213781Y-100140860D01*
X170213780Y-100140859D01*
X170049920Y-100031371D01*
X170049911Y-100031366D01*
X169977315Y-100001296D01*
X169921165Y-99978038D01*
X169867836Y-99955949D01*
X169867832Y-99955948D01*
X169867828Y-99955946D01*
X169771188Y-99936724D01*
X169674544Y-99917500D01*
X169674541Y-99917500D01*
X162668811Y-99917500D01*
X162601772Y-99897815D01*
X162556017Y-99845011D01*
X162546141Y-99811615D01*
X162528863Y-99694615D01*
X162538543Y-99625419D01*
X162584096Y-99572441D01*
X162651060Y-99552501D01*
X162651533Y-99552500D01*
X182160218Y-99552500D01*
X182227257Y-99572185D01*
X182247899Y-99588819D01*
X187385181Y-104726101D01*
X187418666Y-104787424D01*
X187421500Y-104813782D01*
X187421500Y-105495870D01*
X187421501Y-105495876D01*
X187427908Y-105555483D01*
X187478202Y-105690328D01*
X187478206Y-105690335D01*
X187564452Y-105805544D01*
X187564455Y-105805547D01*
X187679664Y-105891793D01*
X187679671Y-105891797D01*
X187814517Y-105942091D01*
X187814516Y-105942091D01*
X187821444Y-105942835D01*
X187874127Y-105948500D01*
X189569872Y-105948499D01*
X189629483Y-105942091D01*
X189764331Y-105891796D01*
X189879546Y-105805546D01*
X189965796Y-105690331D01*
X190016091Y-105555483D01*
X190022500Y-105495873D01*
X190022499Y-103800128D01*
X190016091Y-103740517D01*
X189986992Y-103662499D01*
X189965797Y-103605671D01*
X189965793Y-103605664D01*
X189879547Y-103490455D01*
X189879544Y-103490452D01*
X189764335Y-103404206D01*
X189764328Y-103404202D01*
X189629482Y-103353908D01*
X189629483Y-103353908D01*
X189569883Y-103347501D01*
X189569881Y-103347500D01*
X189569873Y-103347500D01*
X189569865Y-103347500D01*
X188887782Y-103347500D01*
X188820743Y-103327815D01*
X188800101Y-103311181D01*
X183407479Y-97918559D01*
X183407459Y-97918537D01*
X183263785Y-97774863D01*
X183263781Y-97774860D01*
X183099920Y-97665371D01*
X183099911Y-97665366D01*
X183027315Y-97635296D01*
X182971165Y-97612038D01*
X182917836Y-97589949D01*
X182917832Y-97589948D01*
X182917828Y-97589946D01*
X182821188Y-97570724D01*
X182724544Y-97551500D01*
X182724541Y-97551500D01*
X162319402Y-97551500D01*
X162252363Y-97531815D01*
X162206608Y-97479011D01*
X162196732Y-97445615D01*
X162191268Y-97408615D01*
X162200948Y-97339419D01*
X162246501Y-97286441D01*
X162313465Y-97266501D01*
X162313938Y-97266500D01*
X191812218Y-97266500D01*
X191879257Y-97286185D01*
X191899899Y-97302819D01*
X192465181Y-97868102D01*
X192498666Y-97929425D01*
X192501500Y-97955783D01*
X192501500Y-98637870D01*
X192501501Y-98637876D01*
X192507908Y-98697483D01*
X192558202Y-98832328D01*
X192558206Y-98832335D01*
X192644452Y-98947544D01*
X192644455Y-98947547D01*
X192759664Y-99033793D01*
X192759671Y-99033797D01*
X192894517Y-99084091D01*
X192894516Y-99084091D01*
X192901444Y-99084835D01*
X192954127Y-99090500D01*
X194649872Y-99090499D01*
X194709483Y-99084091D01*
X194844331Y-99033796D01*
X194959546Y-98947546D01*
X195045796Y-98832331D01*
X195096091Y-98697483D01*
X195102500Y-98637873D01*
X195102499Y-96942128D01*
X195096091Y-96882517D01*
X195045796Y-96747669D01*
X195045795Y-96747668D01*
X195045793Y-96747664D01*
X194959547Y-96632455D01*
X194959544Y-96632452D01*
X194844335Y-96546206D01*
X194844328Y-96546202D01*
X194709482Y-96495908D01*
X194709483Y-96495908D01*
X194649883Y-96489501D01*
X194649881Y-96489500D01*
X194649873Y-96489500D01*
X194649865Y-96489500D01*
X193967783Y-96489500D01*
X193900744Y-96469815D01*
X193880102Y-96453181D01*
X193062209Y-95635289D01*
X193062206Y-95635285D01*
X193062206Y-95635286D01*
X193055139Y-95628219D01*
X193055139Y-95628218D01*
X192915782Y-95488861D01*
X192915781Y-95488860D01*
X192915780Y-95488859D01*
X192751920Y-95379371D01*
X192751911Y-95379366D01*
X192679315Y-95349296D01*
X192623165Y-95326038D01*
X192569836Y-95303949D01*
X192569832Y-95303948D01*
X192569828Y-95303946D01*
X192473188Y-95284724D01*
X192376544Y-95265500D01*
X192376541Y-95265500D01*
X161981807Y-95265500D01*
X161914768Y-95245815D01*
X161869013Y-95193011D01*
X161859137Y-95159616D01*
X161756483Y-94464500D01*
X161574882Y-93234803D01*
X161584562Y-93165611D01*
X161630115Y-93112632D01*
X161697078Y-93092692D01*
X161710810Y-93093402D01*
X161772160Y-93099999D01*
X161772172Y-93100000D01*
X162120000Y-93100000D01*
X162120000Y-92300000D01*
X163120000Y-92300000D01*
X163120000Y-93100000D01*
X163467828Y-93100000D01*
X163467844Y-93099999D01*
X163527372Y-93093598D01*
X163527379Y-93093596D01*
X163662086Y-93043354D01*
X163662093Y-93043350D01*
X163768083Y-92964005D01*
X186581357Y-92964005D01*
X186601890Y-93211812D01*
X186601892Y-93211824D01*
X186662936Y-93452881D01*
X186762826Y-93680606D01*
X186898833Y-93888782D01*
X186898836Y-93888785D01*
X187067256Y-94071738D01*
X187263491Y-94224474D01*
X187482190Y-94342828D01*
X187717386Y-94423571D01*
X187962665Y-94464500D01*
X188211335Y-94464500D01*
X188456614Y-94423571D01*
X188691810Y-94342828D01*
X188910509Y-94224474D01*
X189106744Y-94071738D01*
X189131194Y-94045177D01*
X189168626Y-94004517D01*
X189228513Y-93968526D01*
X189259855Y-93964500D01*
X189924820Y-93964500D01*
X189991859Y-93984185D01*
X190024085Y-94014187D01*
X190104454Y-94121546D01*
X190150643Y-94156123D01*
X190219664Y-94207793D01*
X190219671Y-94207797D01*
X190354517Y-94258091D01*
X190354516Y-94258091D01*
X190361444Y-94258835D01*
X190414127Y-94264500D01*
X192109872Y-94264499D01*
X192169483Y-94258091D01*
X192304331Y-94207796D01*
X192419546Y-94121546D01*
X192505796Y-94006331D01*
X192556091Y-93871483D01*
X192562500Y-93811873D01*
X192562499Y-92116128D01*
X192556091Y-92056517D01*
X192552021Y-92045606D01*
X192505797Y-91921671D01*
X192505793Y-91921664D01*
X192419547Y-91806455D01*
X192419544Y-91806452D01*
X192304335Y-91720206D01*
X192304328Y-91720202D01*
X192169482Y-91669908D01*
X192169483Y-91669908D01*
X192109883Y-91663501D01*
X192109881Y-91663500D01*
X192109873Y-91663500D01*
X192109864Y-91663500D01*
X190414129Y-91663500D01*
X190414123Y-91663501D01*
X190354516Y-91669908D01*
X190219671Y-91720202D01*
X190219664Y-91720206D01*
X190104456Y-91806452D01*
X190104455Y-91806453D01*
X190104454Y-91806454D01*
X190024087Y-91913811D01*
X189968153Y-91955682D01*
X189924820Y-91963500D01*
X189259855Y-91963500D01*
X189192816Y-91943815D01*
X189168626Y-91923483D01*
X189106747Y-91856265D01*
X189106744Y-91856262D01*
X188966800Y-91747339D01*
X188910509Y-91703526D01*
X188910507Y-91703525D01*
X188910506Y-91703524D01*
X188691811Y-91585172D01*
X188691802Y-91585169D01*
X188456616Y-91504429D01*
X188211335Y-91463500D01*
X187962665Y-91463500D01*
X187717383Y-91504429D01*
X187482197Y-91585169D01*
X187482188Y-91585172D01*
X187263493Y-91703524D01*
X187067257Y-91856261D01*
X186898833Y-92039217D01*
X186762826Y-92247393D01*
X186662936Y-92475118D01*
X186601892Y-92716175D01*
X186601890Y-92716187D01*
X186581357Y-92963994D01*
X186581357Y-92964005D01*
X163768083Y-92964005D01*
X163777187Y-92957190D01*
X163777190Y-92957187D01*
X163863350Y-92842093D01*
X163863354Y-92842086D01*
X163913596Y-92707379D01*
X163913598Y-92707372D01*
X163919999Y-92647844D01*
X163920000Y-92647827D01*
X163920000Y-92300000D01*
X163120000Y-92300000D01*
X162120000Y-92300000D01*
X162120000Y-91852661D01*
X162220000Y-91852661D01*
X162247259Y-91954394D01*
X162299920Y-92045606D01*
X162374394Y-92120080D01*
X162465606Y-92172741D01*
X162567339Y-92200000D01*
X162672661Y-92200000D01*
X162774394Y-92172741D01*
X162865606Y-92120080D01*
X162940080Y-92045606D01*
X162992741Y-91954394D01*
X163020000Y-91852661D01*
X163020000Y-91747339D01*
X162992741Y-91645606D01*
X162940080Y-91554394D01*
X162865606Y-91479920D01*
X162774394Y-91427259D01*
X162672661Y-91400000D01*
X162567339Y-91400000D01*
X162465606Y-91427259D01*
X162374394Y-91479920D01*
X162299920Y-91554394D01*
X162247259Y-91645606D01*
X162220000Y-91747339D01*
X162220000Y-91852661D01*
X162120000Y-91852661D01*
X162120000Y-90500000D01*
X163120000Y-90500000D01*
X163120000Y-91300000D01*
X163920000Y-91300000D01*
X163920000Y-90952172D01*
X163919999Y-90952155D01*
X163913598Y-90892627D01*
X163913596Y-90892620D01*
X163863354Y-90757913D01*
X163863350Y-90757906D01*
X163777190Y-90642812D01*
X163777187Y-90642809D01*
X163662093Y-90556649D01*
X163662086Y-90556645D01*
X163527379Y-90506403D01*
X163527372Y-90506401D01*
X163467844Y-90500000D01*
X163120000Y-90500000D01*
X162120000Y-90500000D01*
X161772155Y-90500000D01*
X161712627Y-90506401D01*
X161712620Y-90506403D01*
X161577913Y-90556645D01*
X161577906Y-90556649D01*
X161462812Y-90642809D01*
X161415140Y-90706491D01*
X161359206Y-90748361D01*
X161289515Y-90753345D01*
X161228192Y-90719859D01*
X161194707Y-90658536D01*
X161193204Y-90650295D01*
X161083582Y-89908000D01*
X169442000Y-89908000D01*
X169442000Y-90455844D01*
X169448401Y-90515372D01*
X169448403Y-90515379D01*
X169498645Y-90650086D01*
X169498649Y-90650093D01*
X169584809Y-90765187D01*
X169584812Y-90765190D01*
X169699906Y-90851350D01*
X169699913Y-90851354D01*
X169834620Y-90901596D01*
X169834627Y-90901598D01*
X169894155Y-90907999D01*
X169894172Y-90908000D01*
X170442000Y-90908000D01*
X170442000Y-89908000D01*
X169442000Y-89908000D01*
X161083582Y-89908000D01*
X160935903Y-88908000D01*
X169442000Y-88908000D01*
X170442000Y-88908000D01*
X170442000Y-87908000D01*
X169894155Y-87908000D01*
X169834627Y-87914401D01*
X169834620Y-87914403D01*
X169699913Y-87964645D01*
X169699906Y-87964649D01*
X169584812Y-88050809D01*
X169584809Y-88050812D01*
X169498649Y-88165906D01*
X169498645Y-88165913D01*
X169448403Y-88300620D01*
X169448401Y-88300627D01*
X169442000Y-88360155D01*
X169442000Y-88908000D01*
X160935903Y-88908000D01*
X160586585Y-86542616D01*
X160596265Y-86473420D01*
X160641818Y-86420441D01*
X160708781Y-86400501D01*
X160709255Y-86400500D01*
X189822820Y-86400500D01*
X189889859Y-86420185D01*
X189922085Y-86450187D01*
X190002454Y-86557546D01*
X190048643Y-86592123D01*
X190117664Y-86643793D01*
X190117671Y-86643797D01*
X190252517Y-86694091D01*
X190252516Y-86694091D01*
X190259444Y-86694835D01*
X190312127Y-86700500D01*
X192007872Y-86700499D01*
X192067483Y-86694091D01*
X192202331Y-86643796D01*
X192317546Y-86557546D01*
X192330733Y-86539929D01*
X192386666Y-86498058D01*
X192456358Y-86493074D01*
X192517681Y-86526558D01*
X192529264Y-86539927D01*
X192534636Y-86547102D01*
X192542452Y-86557544D01*
X192542453Y-86557544D01*
X192542454Y-86557546D01*
X192649811Y-86637914D01*
X192691682Y-86693847D01*
X192699500Y-86737180D01*
X192699500Y-87825955D01*
X192679815Y-87892994D01*
X192627011Y-87938749D01*
X192618832Y-87942137D01*
X192575332Y-87958361D01*
X192505640Y-87963345D01*
X192488667Y-87958361D01*
X192369482Y-87913908D01*
X192369483Y-87913908D01*
X192309883Y-87907501D01*
X192309881Y-87907500D01*
X192309873Y-87907500D01*
X192309864Y-87907500D01*
X190214129Y-87907500D01*
X190214123Y-87907501D01*
X190154516Y-87913908D01*
X190035333Y-87958361D01*
X189965641Y-87963345D01*
X189948667Y-87958361D01*
X189829482Y-87913908D01*
X189829483Y-87913908D01*
X189769883Y-87907501D01*
X189769881Y-87907500D01*
X189769873Y-87907500D01*
X189769864Y-87907500D01*
X187674129Y-87907500D01*
X187674123Y-87907501D01*
X187614515Y-87913909D01*
X187494617Y-87958627D01*
X187424925Y-87963611D01*
X187407953Y-87958627D01*
X187289382Y-87914403D01*
X187289372Y-87914401D01*
X187229844Y-87908000D01*
X186682000Y-87908000D01*
X186682000Y-89342174D01*
X186647925Y-89215007D01*
X186582099Y-89100993D01*
X186489007Y-89007901D01*
X186374993Y-88942075D01*
X186247826Y-88908000D01*
X186116174Y-88908000D01*
X185989007Y-88942075D01*
X185874993Y-89007901D01*
X185781901Y-89100993D01*
X185716075Y-89215007D01*
X185682000Y-89342174D01*
X185682000Y-87908000D01*
X185134155Y-87908000D01*
X185074627Y-87914401D01*
X185074619Y-87914403D01*
X184956046Y-87958628D01*
X184886354Y-87963612D01*
X184869384Y-87958629D01*
X184799356Y-87932510D01*
X184749481Y-87913908D01*
X184749483Y-87913908D01*
X184689883Y-87907501D01*
X184689881Y-87907500D01*
X184689873Y-87907500D01*
X184689864Y-87907500D01*
X182594129Y-87907500D01*
X182594123Y-87907501D01*
X182534516Y-87913908D01*
X182415333Y-87958361D01*
X182345641Y-87963345D01*
X182328667Y-87958361D01*
X182209482Y-87913908D01*
X182209483Y-87913908D01*
X182149883Y-87907501D01*
X182149881Y-87907500D01*
X182149873Y-87907500D01*
X182149864Y-87907500D01*
X180054129Y-87907500D01*
X180054123Y-87907501D01*
X179994516Y-87913908D01*
X179875333Y-87958361D01*
X179805641Y-87963345D01*
X179788667Y-87958361D01*
X179669482Y-87913908D01*
X179669483Y-87913908D01*
X179609883Y-87907501D01*
X179609881Y-87907500D01*
X179609873Y-87907500D01*
X179609864Y-87907500D01*
X177514129Y-87907500D01*
X177514123Y-87907501D01*
X177454516Y-87913908D01*
X177335333Y-87958361D01*
X177265641Y-87963345D01*
X177248667Y-87958361D01*
X177129482Y-87913908D01*
X177129483Y-87913908D01*
X177069883Y-87907501D01*
X177069881Y-87907500D01*
X177069873Y-87907500D01*
X177069864Y-87907500D01*
X174974129Y-87907500D01*
X174974123Y-87907501D01*
X174914516Y-87913908D01*
X174795333Y-87958361D01*
X174725641Y-87963345D01*
X174708667Y-87958361D01*
X174589482Y-87913908D01*
X174589483Y-87913908D01*
X174529883Y-87907501D01*
X174529881Y-87907500D01*
X174529873Y-87907500D01*
X174529864Y-87907500D01*
X172434129Y-87907500D01*
X172434123Y-87907501D01*
X172374515Y-87913909D01*
X172254617Y-87958627D01*
X172184925Y-87963611D01*
X172167953Y-87958627D01*
X172049382Y-87914403D01*
X172049372Y-87914401D01*
X171989844Y-87908000D01*
X171442000Y-87908000D01*
X171442000Y-89342174D01*
X171407925Y-89215007D01*
X171342099Y-89100993D01*
X171249007Y-89007901D01*
X171134993Y-88942075D01*
X171007826Y-88908000D01*
X170876174Y-88908000D01*
X170749007Y-88942075D01*
X170634993Y-89007901D01*
X170541901Y-89100993D01*
X170476075Y-89215007D01*
X170442000Y-89342174D01*
X170442000Y-89473826D01*
X170476075Y-89600993D01*
X170541901Y-89715007D01*
X170634993Y-89808099D01*
X170749007Y-89873925D01*
X170876174Y-89908000D01*
X171007826Y-89908000D01*
X171134993Y-89873925D01*
X171249007Y-89808099D01*
X171342099Y-89715007D01*
X171407925Y-89600993D01*
X171442000Y-89473826D01*
X171442000Y-90908000D01*
X171989828Y-90908000D01*
X171989844Y-90907999D01*
X172049372Y-90901598D01*
X172049376Y-90901597D01*
X172167951Y-90857371D01*
X172237643Y-90852387D01*
X172254606Y-90857367D01*
X172374517Y-90902091D01*
X172434127Y-90908500D01*
X174529872Y-90908499D01*
X174589483Y-90902091D01*
X174708667Y-90857637D01*
X174778358Y-90852654D01*
X174795329Y-90857636D01*
X174914517Y-90902091D01*
X174914516Y-90902091D01*
X174921444Y-90902835D01*
X174974127Y-90908500D01*
X177069872Y-90908499D01*
X177129483Y-90902091D01*
X177248667Y-90857637D01*
X177318358Y-90852654D01*
X177335329Y-90857636D01*
X177454517Y-90902091D01*
X177454516Y-90902091D01*
X177461444Y-90902835D01*
X177514127Y-90908500D01*
X179609872Y-90908499D01*
X179669483Y-90902091D01*
X179788667Y-90857637D01*
X179858358Y-90852654D01*
X179875329Y-90857636D01*
X179994517Y-90902091D01*
X179994516Y-90902091D01*
X180001444Y-90902835D01*
X180054127Y-90908500D01*
X182149872Y-90908499D01*
X182209483Y-90902091D01*
X182328667Y-90857637D01*
X182398358Y-90852654D01*
X182415329Y-90857636D01*
X182534517Y-90902091D01*
X182534516Y-90902091D01*
X182541444Y-90902835D01*
X182594127Y-90908500D01*
X184689872Y-90908499D01*
X184749483Y-90902091D01*
X184869384Y-90857370D01*
X184939073Y-90852387D01*
X184956049Y-90857371D01*
X185074623Y-90901597D01*
X185074627Y-90901598D01*
X185134155Y-90907999D01*
X185134172Y-90908000D01*
X185682000Y-90908000D01*
X185682000Y-89473826D01*
X185716075Y-89600993D01*
X185781901Y-89715007D01*
X185874993Y-89808099D01*
X185989007Y-89873925D01*
X186116174Y-89908000D01*
X186247826Y-89908000D01*
X186374993Y-89873925D01*
X186489007Y-89808099D01*
X186582099Y-89715007D01*
X186647925Y-89600993D01*
X186682000Y-89473826D01*
X186682000Y-90908000D01*
X187229828Y-90908000D01*
X187229844Y-90907999D01*
X187289372Y-90901598D01*
X187289376Y-90901597D01*
X187407951Y-90857371D01*
X187477643Y-90852387D01*
X187494606Y-90857367D01*
X187614517Y-90902091D01*
X187674127Y-90908500D01*
X189769872Y-90908499D01*
X189829483Y-90902091D01*
X189948667Y-90857637D01*
X190018358Y-90852654D01*
X190035329Y-90857636D01*
X190154517Y-90902091D01*
X190154516Y-90902091D01*
X190161444Y-90902835D01*
X190214127Y-90908500D01*
X192309872Y-90908499D01*
X192369483Y-90902091D01*
X192488667Y-90857637D01*
X192558358Y-90852654D01*
X192575329Y-90857636D01*
X192694517Y-90902091D01*
X192694516Y-90902091D01*
X192701444Y-90902835D01*
X192754127Y-90908500D01*
X194849872Y-90908499D01*
X194909483Y-90902091D01*
X195028667Y-90857637D01*
X195098358Y-90852654D01*
X195115329Y-90857636D01*
X195234517Y-90902091D01*
X195234518Y-90902091D01*
X195242062Y-90903874D01*
X195241523Y-90906151D01*
X195295287Y-90928408D01*
X195335147Y-90985793D01*
X195341500Y-91024975D01*
X195341500Y-91626819D01*
X195321815Y-91693858D01*
X195291812Y-91726085D01*
X195184452Y-91806455D01*
X195098206Y-91921664D01*
X195098202Y-91921671D01*
X195047908Y-92056517D01*
X195043434Y-92098138D01*
X195041501Y-92116123D01*
X195041500Y-92116135D01*
X195041500Y-93811870D01*
X195041501Y-93811876D01*
X195047908Y-93871483D01*
X195098202Y-94006328D01*
X195098206Y-94006335D01*
X195184452Y-94121544D01*
X195184455Y-94121547D01*
X195299664Y-94207793D01*
X195299671Y-94207797D01*
X195434517Y-94258091D01*
X195434516Y-94258091D01*
X195441444Y-94258835D01*
X195494127Y-94264500D01*
X197189872Y-94264499D01*
X197249483Y-94258091D01*
X197384331Y-94207796D01*
X197499546Y-94121546D01*
X197585796Y-94006331D01*
X197636091Y-93871483D01*
X197636091Y-93871476D01*
X197636822Y-93868387D01*
X197638050Y-93866228D01*
X197638802Y-93864215D01*
X197639128Y-93864336D01*
X197671394Y-93807670D01*
X197733304Y-93775283D01*
X197802896Y-93781507D01*
X197858075Y-93824368D01*
X197881322Y-93890257D01*
X197881500Y-93896899D01*
X197881500Y-96452819D01*
X197861815Y-96519858D01*
X197831812Y-96552085D01*
X197724452Y-96632455D01*
X197638206Y-96747664D01*
X197638202Y-96747671D01*
X197587908Y-96882517D01*
X197581501Y-96942116D01*
X197581501Y-96942123D01*
X197581500Y-96942135D01*
X197581500Y-98637870D01*
X197581501Y-98637876D01*
X197587908Y-98697483D01*
X197638202Y-98832328D01*
X197638206Y-98832335D01*
X197724452Y-98947544D01*
X197724455Y-98947547D01*
X197839664Y-99033793D01*
X197839671Y-99033797D01*
X197974517Y-99084091D01*
X197974516Y-99084091D01*
X197981444Y-99084835D01*
X198034127Y-99090500D01*
X199729872Y-99090499D01*
X199789483Y-99084091D01*
X199924331Y-99033796D01*
X200039546Y-98947546D01*
X200125796Y-98832331D01*
X200176091Y-98697483D01*
X200182500Y-98637873D01*
X200182499Y-96942128D01*
X200176091Y-96882517D01*
X200125796Y-96747669D01*
X200125795Y-96747668D01*
X200125793Y-96747664D01*
X200039547Y-96632455D01*
X199932188Y-96552085D01*
X199890318Y-96496151D01*
X199882500Y-96452819D01*
X199882500Y-91024976D01*
X199902185Y-90957937D01*
X199954989Y-90912182D01*
X199982135Y-90904736D01*
X199981932Y-90903876D01*
X199989479Y-90902092D01*
X199989481Y-90902091D01*
X199989483Y-90902091D01*
X200108667Y-90857637D01*
X200178358Y-90852654D01*
X200195329Y-90857636D01*
X200314517Y-90902091D01*
X200314516Y-90902091D01*
X200321444Y-90902835D01*
X200374127Y-90908500D01*
X202469872Y-90908499D01*
X202529483Y-90902091D01*
X202648667Y-90857637D01*
X202718358Y-90852654D01*
X202735329Y-90857636D01*
X202854517Y-90902091D01*
X202854516Y-90902091D01*
X202861444Y-90902835D01*
X202914127Y-90908500D01*
X205009872Y-90908499D01*
X205069483Y-90902091D01*
X205188667Y-90857637D01*
X205258358Y-90852654D01*
X205275329Y-90857636D01*
X205394517Y-90902091D01*
X205394516Y-90902091D01*
X205401444Y-90902835D01*
X205454127Y-90908500D01*
X207549872Y-90908499D01*
X207609483Y-90902091D01*
X207728667Y-90857637D01*
X207798358Y-90852654D01*
X207815329Y-90857636D01*
X207934517Y-90902091D01*
X207934516Y-90902091D01*
X207941444Y-90902835D01*
X207994127Y-90908500D01*
X210089872Y-90908499D01*
X210149483Y-90902091D01*
X210268667Y-90857637D01*
X210338358Y-90852654D01*
X210355329Y-90857636D01*
X210474517Y-90902091D01*
X210474516Y-90902091D01*
X210481444Y-90902835D01*
X210534127Y-90908500D01*
X212629872Y-90908499D01*
X212689483Y-90902091D01*
X212808667Y-90857637D01*
X212878358Y-90852654D01*
X212895329Y-90857636D01*
X213014517Y-90902091D01*
X213014516Y-90902091D01*
X213021444Y-90902835D01*
X213074127Y-90908500D01*
X215169872Y-90908499D01*
X215229483Y-90902091D01*
X215348667Y-90857637D01*
X215418358Y-90852654D01*
X215435329Y-90857636D01*
X215554517Y-90902091D01*
X215554516Y-90902091D01*
X215561444Y-90902835D01*
X215614127Y-90908500D01*
X217709872Y-90908499D01*
X217769483Y-90902091D01*
X217904331Y-90851796D01*
X218019546Y-90765546D01*
X218105796Y-90650331D01*
X218156091Y-90515483D01*
X218162500Y-90455873D01*
X218162499Y-88360128D01*
X218156091Y-88300517D01*
X218105884Y-88165906D01*
X218105797Y-88165671D01*
X218105793Y-88165664D01*
X218019547Y-88050455D01*
X218019544Y-88050452D01*
X217904335Y-87964206D01*
X217904328Y-87964202D01*
X217769482Y-87913908D01*
X217769483Y-87913908D01*
X217709883Y-87907501D01*
X217709881Y-87907500D01*
X217709873Y-87907500D01*
X217709864Y-87907500D01*
X215614129Y-87907500D01*
X215614123Y-87907501D01*
X215554516Y-87913908D01*
X215435333Y-87958361D01*
X215365641Y-87963345D01*
X215348667Y-87958361D01*
X215229482Y-87913908D01*
X215229483Y-87913908D01*
X215169883Y-87907501D01*
X215169881Y-87907500D01*
X215169873Y-87907500D01*
X215169864Y-87907500D01*
X213074129Y-87907500D01*
X213074123Y-87907501D01*
X213014516Y-87913908D01*
X212895333Y-87958361D01*
X212825641Y-87963345D01*
X212808667Y-87958361D01*
X212689482Y-87913908D01*
X212689483Y-87913908D01*
X212629883Y-87907501D01*
X212629881Y-87907500D01*
X212629873Y-87907500D01*
X212629864Y-87907500D01*
X210534129Y-87907500D01*
X210534123Y-87907501D01*
X210474516Y-87913908D01*
X210355333Y-87958361D01*
X210285641Y-87963345D01*
X210268667Y-87958361D01*
X210149482Y-87913908D01*
X210141938Y-87912126D01*
X210142474Y-87909853D01*
X210088688Y-87887571D01*
X210048843Y-87830177D01*
X210042500Y-87791024D01*
X210042500Y-76520000D01*
X213000000Y-76520000D01*
X213000000Y-77067844D01*
X213006401Y-77127372D01*
X213006403Y-77127379D01*
X213056645Y-77262086D01*
X213056649Y-77262093D01*
X213142809Y-77377187D01*
X213142812Y-77377190D01*
X213257906Y-77463350D01*
X213257913Y-77463354D01*
X213392620Y-77513596D01*
X213392627Y-77513598D01*
X213452155Y-77519999D01*
X213452172Y-77520000D01*
X214000000Y-77520000D01*
X214000000Y-76520000D01*
X215000000Y-76520000D01*
X215000000Y-77520000D01*
X215547828Y-77520000D01*
X215547844Y-77519999D01*
X215607372Y-77513598D01*
X215607379Y-77513596D01*
X215742086Y-77463354D01*
X215742093Y-77463350D01*
X215857187Y-77377190D01*
X215857190Y-77377187D01*
X215943350Y-77262093D01*
X215943354Y-77262086D01*
X215993596Y-77127379D01*
X215993598Y-77127372D01*
X215999999Y-77067844D01*
X216000000Y-77067827D01*
X216000000Y-76520000D01*
X215000000Y-76520000D01*
X214000000Y-76520000D01*
X213000000Y-76520000D01*
X210042500Y-76520000D01*
X210042500Y-76072661D01*
X214100000Y-76072661D01*
X214127259Y-76174394D01*
X214179920Y-76265606D01*
X214254394Y-76340080D01*
X214345606Y-76392741D01*
X214447339Y-76420000D01*
X214552661Y-76420000D01*
X214654394Y-76392741D01*
X214745606Y-76340080D01*
X214820080Y-76265606D01*
X214872741Y-76174394D01*
X214900000Y-76072661D01*
X214900000Y-75967339D01*
X214872741Y-75865606D01*
X214820080Y-75774394D01*
X214745606Y-75699920D01*
X214654394Y-75647259D01*
X214552661Y-75620000D01*
X214447339Y-75620000D01*
X214345606Y-75647259D01*
X214254394Y-75699920D01*
X214179920Y-75774394D01*
X214127259Y-75865606D01*
X214100000Y-75967339D01*
X214100000Y-76072661D01*
X210042500Y-76072661D01*
X210042500Y-75520000D01*
X213000000Y-75520000D01*
X214000000Y-75520000D01*
X214000000Y-74520000D01*
X215000000Y-74520000D01*
X215000000Y-75520000D01*
X216000000Y-75520000D01*
X216000000Y-74972172D01*
X215999999Y-74972155D01*
X215993598Y-74912627D01*
X215993596Y-74912620D01*
X215943354Y-74777913D01*
X215943350Y-74777906D01*
X215857190Y-74662812D01*
X215857187Y-74662809D01*
X215742093Y-74576649D01*
X215742086Y-74576645D01*
X215607379Y-74526403D01*
X215607372Y-74526401D01*
X215547844Y-74520000D01*
X215000000Y-74520000D01*
X214000000Y-74520000D01*
X213452155Y-74520000D01*
X213392627Y-74526401D01*
X213392620Y-74526403D01*
X213257913Y-74576645D01*
X213257906Y-74576649D01*
X213142812Y-74662809D01*
X213142809Y-74662812D01*
X213056649Y-74777906D01*
X213056645Y-74777913D01*
X213006403Y-74912620D01*
X213006401Y-74912627D01*
X213000000Y-74972155D01*
X213000000Y-75520000D01*
X210042500Y-75520000D01*
X210042500Y-69706385D01*
X210062185Y-69639346D01*
X210114989Y-69593591D01*
X210184147Y-69583647D01*
X210242660Y-69608530D01*
X210377491Y-69713474D01*
X210596190Y-69831828D01*
X210831386Y-69912571D01*
X211076665Y-69953500D01*
X211325335Y-69953500D01*
X211570614Y-69912571D01*
X211805810Y-69831828D01*
X212024509Y-69713474D01*
X212220744Y-69560738D01*
X212331415Y-69440517D01*
X212391302Y-69404526D01*
X212422645Y-69400500D01*
X212883023Y-69400500D01*
X212950062Y-69420185D01*
X212995817Y-69472989D01*
X213003266Y-69500134D01*
X213004124Y-69499932D01*
X213005907Y-69507479D01*
X213056202Y-69642328D01*
X213056206Y-69642335D01*
X213142452Y-69757544D01*
X213142455Y-69757547D01*
X213257664Y-69843793D01*
X213257671Y-69843797D01*
X213392517Y-69894091D01*
X213392516Y-69894091D01*
X213399444Y-69894835D01*
X213452127Y-69900500D01*
X215547872Y-69900499D01*
X215607483Y-69894091D01*
X215742331Y-69843796D01*
X215857546Y-69757546D01*
X215943796Y-69642331D01*
X215994091Y-69507483D01*
X216000500Y-69447873D01*
X216000499Y-67352128D01*
X215994091Y-67292517D01*
X215963858Y-67211459D01*
X215943797Y-67157671D01*
X215943793Y-67157664D01*
X215857547Y-67042455D01*
X215857544Y-67042452D01*
X215742335Y-66956206D01*
X215742328Y-66956202D01*
X215607482Y-66905908D01*
X215607483Y-66905908D01*
X215547883Y-66899501D01*
X215547881Y-66899500D01*
X215547873Y-66899500D01*
X215547864Y-66899500D01*
X213452129Y-66899500D01*
X213452123Y-66899501D01*
X213392516Y-66905908D01*
X213257671Y-66956202D01*
X213257664Y-66956206D01*
X213142455Y-67042452D01*
X213142452Y-67042455D01*
X213056206Y-67157664D01*
X213056202Y-67157671D01*
X213005908Y-67292517D01*
X213004126Y-67300062D01*
X213001853Y-67299525D01*
X212979571Y-67353312D01*
X212922177Y-67393157D01*
X212883024Y-67399500D01*
X212325065Y-67399500D01*
X212258026Y-67379815D01*
X212233836Y-67359484D01*
X212228154Y-67353312D01*
X212220744Y-67345262D01*
X212024509Y-67192526D01*
X212024507Y-67192525D01*
X212024506Y-67192524D01*
X211805811Y-67074172D01*
X211805802Y-67074169D01*
X211570616Y-66993429D01*
X211325335Y-66952500D01*
X211076665Y-66952500D01*
X210831383Y-66993429D01*
X210596197Y-67074169D01*
X210596183Y-67074175D01*
X210481921Y-67136011D01*
X210413593Y-67150606D01*
X210348221Y-67125943D01*
X210306560Y-67069853D01*
X210301838Y-67000143D01*
X210335553Y-66938946D01*
X210348593Y-66927690D01*
X210386249Y-66899500D01*
X210399546Y-66889546D01*
X210485796Y-66774331D01*
X210536091Y-66639483D01*
X210542500Y-66579873D01*
X210542499Y-64484128D01*
X210536091Y-64424517D01*
X210523162Y-64389853D01*
X210485797Y-64289671D01*
X210485793Y-64289664D01*
X210399547Y-64174455D01*
X210399544Y-64174452D01*
X210284335Y-64088206D01*
X210284328Y-64088202D01*
X210149482Y-64037908D01*
X210149483Y-64037908D01*
X210089883Y-64031501D01*
X210089881Y-64031500D01*
X210089873Y-64031500D01*
X210089864Y-64031500D01*
X207994129Y-64031500D01*
X207994123Y-64031501D01*
X207934516Y-64037908D01*
X207815333Y-64082361D01*
X207745641Y-64087345D01*
X207728667Y-64082361D01*
X207609482Y-64037908D01*
X207609483Y-64037908D01*
X207549883Y-64031501D01*
X207549881Y-64031500D01*
X207549873Y-64031500D01*
X207549864Y-64031500D01*
X205454129Y-64031500D01*
X205454123Y-64031501D01*
X205394516Y-64037908D01*
X205259671Y-64088202D01*
X205259664Y-64088206D01*
X205144455Y-64174452D01*
X205144452Y-64174455D01*
X205058206Y-64289664D01*
X205058202Y-64289671D01*
X205007908Y-64424517D01*
X205006126Y-64432062D01*
X205003853Y-64431525D01*
X204981571Y-64485312D01*
X204924177Y-64525157D01*
X204885024Y-64531500D01*
X203668940Y-64531500D01*
X203601901Y-64511815D01*
X203556146Y-64459011D01*
X203546202Y-64389853D01*
X203575227Y-64326297D01*
X203618685Y-64294140D01*
X206531931Y-63002640D01*
X206582186Y-62992000D01*
X218570000Y-62992000D01*
X218637039Y-63011685D01*
G37*
%TD.AperFunction*%
%TA.AperFunction,Conductor*%
G36*
X204462000Y-115292000D02*
G01*
X205009828Y-115292000D01*
X205009844Y-115291999D01*
X205069372Y-115285598D01*
X205069376Y-115285597D01*
X205187951Y-115241371D01*
X205257643Y-115236387D01*
X205274606Y-115241367D01*
X205394517Y-115286091D01*
X205394520Y-115286092D01*
X205402062Y-115287874D01*
X205401523Y-115290151D01*
X205455287Y-115312408D01*
X205495147Y-115369793D01*
X205501500Y-115408975D01*
X205501500Y-136330819D01*
X205481815Y-136397858D01*
X205451812Y-136430085D01*
X205344454Y-136510454D01*
X205331266Y-136528071D01*
X205275332Y-136569941D01*
X205205640Y-136574925D01*
X205144317Y-136541439D01*
X205132734Y-136528071D01*
X205119546Y-136510454D01*
X205119544Y-136510453D01*
X205119544Y-136510452D01*
X205004335Y-136424206D01*
X205004328Y-136424202D01*
X204869482Y-136373908D01*
X204869483Y-136373908D01*
X204809883Y-136367501D01*
X204809881Y-136367500D01*
X204809873Y-136367500D01*
X204809864Y-136367500D01*
X203114129Y-136367500D01*
X203114123Y-136367501D01*
X203054516Y-136373908D01*
X202919671Y-136424202D01*
X202919664Y-136424206D01*
X202804456Y-136510452D01*
X202804455Y-136510453D01*
X202804454Y-136510454D01*
X202756191Y-136574925D01*
X202724087Y-136617811D01*
X202668153Y-136659682D01*
X202624820Y-136667500D01*
X191735176Y-136667500D01*
X191668137Y-136647815D01*
X191654929Y-136638033D01*
X191312121Y-136347031D01*
X191273753Y-136288642D01*
X191273043Y-136218776D01*
X191310219Y-136159617D01*
X191373476Y-136129948D01*
X191392369Y-136128500D01*
X197710542Y-136128500D01*
X197729870Y-136124655D01*
X197807188Y-136109275D01*
X197903836Y-136090051D01*
X197957165Y-136067961D01*
X198085914Y-136014632D01*
X198249782Y-135905139D01*
X198389139Y-135765782D01*
X198389140Y-135765779D01*
X198396206Y-135758714D01*
X198396209Y-135758710D01*
X198960101Y-135194818D01*
X199021424Y-135161333D01*
X199047782Y-135158499D01*
X199729871Y-135158499D01*
X199729872Y-135158499D01*
X199789483Y-135152091D01*
X199924331Y-135101796D01*
X200039546Y-135015546D01*
X200052733Y-134997929D01*
X200108666Y-134956058D01*
X200178358Y-134951074D01*
X200239681Y-134984558D01*
X200251267Y-134997930D01*
X200264454Y-135015546D01*
X200264455Y-135015547D01*
X200379664Y-135101793D01*
X200379671Y-135101797D01*
X200514517Y-135152091D01*
X200514516Y-135152091D01*
X200521444Y-135152835D01*
X200574127Y-135158500D01*
X202269872Y-135158499D01*
X202329483Y-135152091D01*
X202464331Y-135101796D01*
X202579546Y-135015546D01*
X202665796Y-134900331D01*
X202716091Y-134765483D01*
X202722500Y-134705873D01*
X202722499Y-133010128D01*
X202716091Y-132950517D01*
X202665796Y-132815669D01*
X202665795Y-132815668D01*
X202665793Y-132815664D01*
X202579547Y-132700455D01*
X202472188Y-132620085D01*
X202430318Y-132564151D01*
X202422500Y-132520819D01*
X202422500Y-115408976D01*
X202442185Y-115341937D01*
X202494989Y-115296182D01*
X202522135Y-115288736D01*
X202521932Y-115287876D01*
X202529476Y-115286093D01*
X202529480Y-115286091D01*
X202529483Y-115286091D01*
X202649384Y-115241370D01*
X202719073Y-115236387D01*
X202736049Y-115241371D01*
X202854623Y-115285597D01*
X202854627Y-115285598D01*
X202914155Y-115291999D01*
X202914172Y-115292000D01*
X203462000Y-115292000D01*
X203462000Y-113857826D01*
X203496075Y-113984993D01*
X203561901Y-114099007D01*
X203654993Y-114192099D01*
X203769007Y-114257925D01*
X203896174Y-114292000D01*
X204027826Y-114292000D01*
X204154993Y-114257925D01*
X204269007Y-114192099D01*
X204362099Y-114099007D01*
X204427925Y-113984993D01*
X204462000Y-113857826D01*
X204462000Y-115292000D01*
G37*
%TD.AperFunction*%
%TD*%
M02*
