%TF.GenerationSoftware,KiCad,Pcbnew,8.0.0*%
%TF.CreationDate,2024-03-02T15:21:29-05:00*%
%TF.ProjectId,Plano,506c616e-6f2e-46b6-9963-61645f706362,rev?*%
%TF.SameCoordinates,Original*%
%TF.FileFunction,Soldermask,Bot*%
%TF.FilePolarity,Negative*%
%FSLAX46Y46*%
G04 Gerber Fmt 4.6, Leading zero omitted, Abs format (unit mm)*
G04 Created by KiCad (PCBNEW 8.0.0) date 2024-03-02 15:21:29*
%MOMM*%
%LPD*%
G01*
G04 APERTURE LIST*
%ADD10R,2.000000X2.000000*%
%ADD11R,1.050000X1.500000*%
%ADD12R,1.600000X1.600000*%
G04 APERTURE END LIST*
D10*
%TO.C,SW1*%
X214500000Y-76020000D03*
X214500000Y-68400000D03*
%TD*%
D11*
%TO.C,Q2*%
X148000000Y-77740000D03*
X146730000Y-77740000D03*
X145460000Y-77740000D03*
%TD*%
D10*
%TO.C,J1*%
X98298000Y-78486000D03*
X100838000Y-78486000D03*
X103378000Y-78486000D03*
X105918000Y-78486000D03*
X108458000Y-78486000D03*
X110998000Y-78486000D03*
X113538000Y-78486000D03*
X116078000Y-78486000D03*
X118618000Y-78486000D03*
X121158000Y-78486000D03*
X123698000Y-78486000D03*
X126238000Y-78486000D03*
%TD*%
%TO.C,J3*%
X170942000Y-89408000D03*
X173482000Y-89408000D03*
X176022000Y-89408000D03*
X178562000Y-89408000D03*
X181102000Y-89408000D03*
X183642000Y-89408000D03*
X186182000Y-89408000D03*
X188722000Y-89408000D03*
X191262000Y-89408000D03*
X193802000Y-89408000D03*
X196342000Y-89408000D03*
X198882000Y-89408000D03*
X201422000Y-89408000D03*
X203962000Y-89408000D03*
X206502000Y-89408000D03*
X209042000Y-89408000D03*
X211582000Y-89408000D03*
X214122000Y-89408000D03*
X216662000Y-89408000D03*
%TD*%
D12*
%TO.C,R14*%
X191200000Y-121800000D03*
X188660000Y-121800000D03*
%TD*%
%TO.C,R12*%
X188722000Y-108966000D03*
X183642000Y-108966000D03*
%TD*%
D11*
%TO.C,Q6*%
X148236000Y-102368000D03*
X146966000Y-102368000D03*
X145696000Y-102368000D03*
%TD*%
%TO.C,Q8*%
X148600000Y-132400000D03*
X147330000Y-132400000D03*
X146060000Y-132400000D03*
%TD*%
D12*
%TO.C,R3*%
X191262000Y-92964000D03*
X196342000Y-92964000D03*
%TD*%
D11*
%TO.C,Q5*%
X148206000Y-116908000D03*
X146936000Y-116908000D03*
X145666000Y-116908000D03*
%TD*%
D10*
%TO.C,R1*%
X206502000Y-65532000D03*
X209042000Y-65532000D03*
%TD*%
D11*
%TO.C,Q1*%
X148100000Y-70100000D03*
X146830000Y-70100000D03*
X145560000Y-70100000D03*
%TD*%
%TO.C,Q7*%
X148306000Y-123708000D03*
X147036000Y-123708000D03*
X145766000Y-123708000D03*
%TD*%
D12*
%TO.C,R6*%
X201422000Y-76962000D03*
X198882000Y-76962000D03*
%TD*%
D11*
%TO.C,Q4*%
X148000000Y-83900000D03*
X146730000Y-83900000D03*
X145460000Y-83900000D03*
%TD*%
D12*
%TO.C,R13*%
X176100000Y-102362000D03*
X171020000Y-102362000D03*
%TD*%
%TO.C,R15*%
X196342000Y-126238000D03*
X193802000Y-126238000D03*
%TD*%
D10*
%TO.C,SW2*%
X214400000Y-132425000D03*
X214400000Y-124805000D03*
%TD*%
D12*
%TO.C,R17*%
X178700000Y-118800000D03*
X176160000Y-118800000D03*
%TD*%
%TO.C,SW3*%
X155000000Y-91800000D03*
X162620000Y-91800000D03*
%TD*%
%TO.C,R4*%
X191160000Y-85400000D03*
X193700000Y-85400000D03*
%TD*%
%TO.C,R8*%
X198900000Y-80800000D03*
X196360000Y-80800000D03*
%TD*%
%TO.C,R16*%
X201422000Y-133858000D03*
X198882000Y-133858000D03*
%TD*%
%TO.C,R7*%
X198882000Y-97790000D03*
X193802000Y-97790000D03*
%TD*%
%TO.C,R2*%
X201422000Y-73152000D03*
X203962000Y-73152000D03*
%TD*%
D10*
%TO.C,J4*%
X170942000Y-113792000D03*
X173482000Y-113792000D03*
X176022000Y-113792000D03*
X178562000Y-113792000D03*
X181102000Y-113792000D03*
X183642000Y-113792000D03*
X186182000Y-113792000D03*
X188722000Y-113792000D03*
X191262000Y-113792000D03*
X193802000Y-113792000D03*
X196342000Y-113792000D03*
X198882000Y-113792000D03*
X201422000Y-113792000D03*
X203962000Y-113792000D03*
X206502000Y-113792000D03*
X209042000Y-113792000D03*
X211582000Y-113792000D03*
X214122000Y-113792000D03*
X216662000Y-113792000D03*
%TD*%
D11*
%TO.C,Q3*%
X148000000Y-92400000D03*
X146730000Y-92400000D03*
X145460000Y-92400000D03*
%TD*%
%TO.C,Q9*%
X148206000Y-109968000D03*
X146936000Y-109968000D03*
X145666000Y-109968000D03*
%TD*%
D12*
%TO.C,R9*%
X206502000Y-137668000D03*
X203962000Y-137668000D03*
%TD*%
D10*
%TO.C,J2*%
X98298000Y-124206000D03*
X100838000Y-124206000D03*
X103378000Y-124206000D03*
X105918000Y-124206000D03*
X108458000Y-124206000D03*
X110998000Y-124206000D03*
X113538000Y-124206000D03*
X116078000Y-124206000D03*
X118618000Y-124206000D03*
X121158000Y-124206000D03*
X123698000Y-124206000D03*
X126238000Y-124206000D03*
%TD*%
%TO.C,R5*%
X206502000Y-69342000D03*
X203962000Y-69342000D03*
%TD*%
D12*
%TO.C,R10*%
X198882000Y-130048000D03*
X196342000Y-130048000D03*
%TD*%
%TO.C,R11*%
X193802000Y-104648000D03*
X188722000Y-104648000D03*
%TD*%
M02*
