M48
; DRILL file {KiCad 8.0.0} date 2024-03-02T15:21:20-0500
; FORMAT={-:-/ absolute / inch / decimal}
; #@! TF.CreationDate,2024-03-02T15:21:20-05:00
; #@! TF.GenerationSoftware,Kicad,Pcbnew,8.0.0
; #@! TF.FileFunction,Plated,1,2,PTH
FMAT,2
INCH
; #@! TA.AperFunction,Plated,PTH,ComponentDrill
T1C0.0276
; #@! TA.AperFunction,Plated,PTH,ComponentDrill
T2C0.0295
; #@! TA.AperFunction,Plated,PTH,ViaDrill
T3C0.0315
; #@! TA.AperFunction,Plated,PTH,ComponentDrill
T4C0.0315
; #@! TA.AperFunction,Plated,PTH,ComponentDrill
T5C0.0394
%
G90
G05
T1
X6.7331Y-4.03
X6.9331Y-4.03
X7.23Y-4.29
X7.43Y-4.12
X7.43Y-4.29
X7.53Y-3.66
X7.63Y-3.85
X7.63Y-4.12
X7.73Y-3.66
X7.83Y-3.85
T2
X5.7268Y-3.0606
X5.7268Y-3.3031
X5.7268Y-3.6378
X5.7307Y-2.7598
X5.7349Y-4.3294
X5.7349Y-4.6027
X5.7361Y-4.0302
X5.7388Y-4.8704
X5.7504Y-5.2126
X5.7768Y-3.0606
X5.7768Y-3.3031
X5.7768Y-3.6378
X5.7807Y-2.7598
X5.7849Y-4.3294
X5.7849Y-4.6027
X5.7861Y-4.0302
X5.7888Y-4.8704
X5.8004Y-5.2126
X5.8268Y-3.0606
X5.8268Y-3.3031
X5.8268Y-3.6378
X5.8307Y-2.7598
X5.8349Y-4.3294
X5.8349Y-4.6027
X5.8361Y-4.0302
X5.8388Y-4.8704
X5.8504Y-5.2126
T3
X4.465Y-3.205
X5.93Y-3.322
X5.932Y-3.692
X5.942Y-3.074
X5.944Y-4.88
X5.948Y-4.672
X5.954Y-4.402
X5.982Y-4.088
X5.988Y-3.538
X6.016Y-5.212
X6.0342Y-4.7284
X6.076Y-3.318
X6.084Y-4.504
X6.092Y-3.074
X6.096Y-2.756
X6.096Y-4.154
X6.118Y-4.88
X6.93Y-4.37
X7.035Y-4.035
X7.325Y-4.63
X7.405Y-3.66
X8.265Y-5.21
X8.315Y-2.695
T4
X6.1024Y-3.6142
X6.4024Y-3.6142
X6.9354Y-4.6772
X7.0354Y-4.6772
X7.4276Y-4.7953
X7.526Y-3.3622
X7.5276Y-4.7953
X7.626Y-3.3622
X7.63Y-4.97
X7.73Y-4.97
X7.73Y-5.12
X7.7307Y-3.1811
X7.83Y-3.03
X7.83Y-5.12
X7.83Y-5.27
X7.8307Y-3.1811
X7.93Y-2.88
X7.93Y-3.03
X7.93Y-5.27
X8.03Y-2.73
X8.03Y-2.88
X8.03Y-5.42
X8.13Y-2.58
X8.13Y-2.73
X8.13Y-5.42
X8.23Y-2.58
X8.4409Y-4.9136
X8.4409Y-5.2136
X8.4449Y-2.6929
X8.4449Y-2.9929
T5
X3.87Y-3.09
X3.87Y-4.89
X3.97Y-3.09
X3.97Y-4.89
X4.07Y-3.09
X4.07Y-4.89
X4.17Y-3.09
X4.17Y-4.89
X4.27Y-3.09
X4.27Y-4.89
X4.37Y-3.09
X4.37Y-4.89
X4.47Y-3.09
X4.47Y-4.89
X4.57Y-3.09
X4.57Y-4.89
X4.67Y-3.09
X4.67Y-4.89
X4.77Y-3.09
X4.77Y-4.89
X4.87Y-3.09
X4.87Y-4.89
X4.97Y-3.09
X4.97Y-4.89
X6.73Y-3.52
X6.73Y-4.48
X6.83Y-3.52
X6.83Y-4.48
X6.93Y-3.52
X6.93Y-4.48
X7.03Y-3.52
X7.03Y-4.48
X7.13Y-3.52
X7.13Y-4.48
X7.23Y-3.52
X7.23Y-4.48
X7.33Y-3.52
X7.33Y-4.48
X7.43Y-3.52
X7.43Y-4.48
X7.53Y-3.52
X7.53Y-4.48
X7.63Y-3.52
X7.63Y-4.48
X7.73Y-3.52
X7.73Y-4.48
X7.83Y-3.52
X7.83Y-4.48
X7.93Y-3.52
X7.93Y-4.48
X8.03Y-3.52
X8.03Y-4.48
X8.13Y-3.52
X8.13Y-4.48
X8.23Y-3.52
X8.23Y-4.48
X8.33Y-3.52
X8.33Y-4.48
X8.43Y-3.52
X8.43Y-4.48
X8.53Y-3.52
X8.53Y-4.48
M30
